<?xml version="1.0" encoding="UTF-8"?>
<svg xmlns="http://www.w3.org/2000/svg" xmlns:xlink="http://www.w3.org/1999/xlink" width="2232" height="2805" viewBox="0 0 2232 2805">
<path fill-rule="evenodd" fill="rgb(13.719177%, 10.984802%, 12.156677%)" fill-opacity="1" d="M 1463.890625 2577.292969 C 1478.238281 2572.574219 1475.730469 2573.753906 1467.191406 2568.914062 C 1494.710938 2541.492188 1697.558594 2506.238281 1745.238281 2501.121094 C 1770.171875 2498.445312 1792.289062 2497.6875 1817.320312 2497.691406 C 1827.941406 2497.691406 1853.519531 2493.066406 1860.289062 2494.351562 C 1868.410156 2495.890625 1850.910156 2501.6875 1849.300781 2502.085938 C 1829.359375 2506.984375 1808.890625 2511.066406 1788.691406 2515.953125 C 1659.449219 2547.214844 1510.871094 2578.257812 1389.050781 2629.96875 C 1357.460938 2643.375 1328.398438 2658.175781 1300.878906 2678.835938 C 1293.539062 2684.347656 1288.828125 2687.511719 1280.160156 2690.765625 C 1309.578125 2637.242188 1407.628906 2595.800781 1463.890625 2577.292969 Z M 490.277344 2527.804688 C 465.089844 2521.121094 441.15625 2514.628906 415.730469 2508.5625 C 406.40625 2506.335938 394.742188 2501.226562 390.785156 2491.867188 C 415.691406 2475.765625 485.296875 2483.605469 513.773438 2488.183594 C 582.816406 2499.28125 656.96875 2521.808594 723.082031 2545.109375 L 724.921875 2545.761719 C 764.339844 2559.761719 911.386719 2615.835938 929.40625 2646.539062 C 933.492188 2653.5 914.632812 2642.925781 937.277344 2658.101562 C 956.242188 2670.8125 959.988281 2674.222656 968.882812 2695.652344 C 937.121094 2681.574219 912.035156 2659.152344 879.503906 2643.796875 C 761.160156 2587.949219 619.636719 2561.53125 492.953125 2528.503906 Z M 337.3125 2382.117188 C 348.011719 2383.410156 410.152344 2398.898438 417.277344 2405.886719 C 404.808594 2416.703125 330.761719 2433.246094 315.890625 2422.121094 C 314.492188 2421.074219 310.28125 2415.554688 309.066406 2414.226562 L 307.253906 2412.394531 C 282.699219 2386.25 287.4375 2391.414062 255.011719 2376.066406 C 229.160156 2363.835938 277.359375 2378.539062 282.195312 2379.378906 C 299.917969 2382.449219 319.035156 2380.472656 337.3125 2382.117188 Z M 1817.179688 2443.175781 C 1838.261719 2425.992188 1896.609375 2389.859375 1923.921875 2399.507812 C 1938.320312 2404.59375 1942.488281 2400.402344 1956.96875 2395.902344 C 2004.101562 2381.253906 2018.53125 2374.480469 2060.179688 2348.105469 C 2089.128906 2329.769531 2042.691406 2372.871094 2039.371094 2375.511719 C 2027.828125 2384.6875 2015.019531 2391.261719 2002.078125 2398.183594 C 2040.96875 2391.027344 2064.160156 2358.679688 2086.558594 2329.070312 C 2090.429688 2323.953125 2092.800781 2321.554688 2098.238281 2318.128906 C 2099.398438 2359.445312 2086.089844 2399.480469 2052.03125 2424.855469 C 2030.039062 2441.242188 1956.46875 2480.503906 1929.75 2473.746094 C 1924.320312 2472.371094 1920.398438 2470.019531 1915.679688 2467.140625 C 1942.769531 2455.042969 1945.46875 2459.152344 1970.898438 2436.71875 C 1983.148438 2425.910156 1965.171875 2433.972656 1959.558594 2435.761719 C 1908.75 2451.953125 1869.101562 2463.589844 1817.179688 2443.175781 Z M 379.867188 2227.246094 C 317.257812 2186.546875 295.886719 2145.234375 265.464844 2079.714844 C 263.605469 2075.703125 261.328125 2072.128906 259.613281 2068.054688 C 263.046875 2093.070312 273.550781 2113.6875 275.09375 2139.34375 C 245.238281 2112.527344 210.074219 2004.355469 196.035156 1962.890625 C 191.871094 1950.617188 187.570312 1938.867188 181.996094 1927.148438 C 198.695312 1988.351562 215.769531 2049.445312 232.839844 2110.546875 C 235.21875 2119.050781 237.550781 2127.5625 239.84375 2136.089844 C 218.0625 2126.183594 215.539062 2112.5 208.652344 2091.367188 C 205.296875 2080.988281 175.136719 1983.117188 170.390625 1984.738281 C 166.222656 1986.164062 180.257812 2028.515625 171.1875 2005.183594 C 159.28125 1974.550781 148.710938 1936.960938 139.132812 1905.253906 C 128.707031 1870.742188 118.488281 1836.144531 108.441406 1801.519531 C 93.878906 1751.390625 77.605469 1696.039062 58.710938 1647.609375 C 53.589844 1634.46875 39.339844 1609.488281 38.289062 1597.730469 C 53.148438 1598.148438 119.132812 1622.429688 139.03125 1628.449219 C 157.171875 1633.671875 175.414062 1638.421875 193.71875 1643.039062 C 307.152344 1671.628906 414.703125 1691.378906 528.007812 1715.46875 L 696.867188 1751.238281 C 721.0625 1751.070312 839.886719 1794.660156 867.785156 1807.992188 C 899.121094 1822.976562 927.109375 1839.007812 956.480469 1857.480469 C 964.484375 1862.527344 1000.441406 1877.65625 987.648438 1891.128906 C 981.972656 1897.113281 951.207031 1919.039062 943.496094 1915.945312 C 934.589844 1912.371094 907.9375 1894.464844 897.886719 1888.355469 C 895.996094 1887.210938 894.136719 1886.109375 892.222656 1885.011719 C 870.6875 1873.027344 844.117188 1858.5625 820.441406 1852.09375 C 818.554688 1851.578125 817.207031 1851.332031 815.503906 1852.257812 C 816.515625 1854.765625 831.242188 1859.046875 837.261719 1864.039062 C 824.949219 1862.488281 800.929688 1852.394531 787.144531 1848.144531 C 701.414062 1822.210938 606.476562 1805.011719 517.992188 1790.210938 C 495.925781 1786.519531 525.960938 1794.578125 530.117188 1795.859375 C 554.785156 1803.441406 580.074219 1808.683594 605.050781 1815.101562 C 618.320312 1818.546875 631.5625 1822.070312 644.796875 1825.640625 C 702.925781 1841.496094 793.089844 1868.621094 827 1921.570312 C 846.0625 1951.335938 853.9375 1982.949219 816.453125 2002.777344 C 804.054688 2009.335938 791.183594 2011.425781 777.320312 2011.683594 C 748.582031 2010.675781 727.988281 2002.316406 700.871094 1997.722656 C 738.773438 2026.0625 835.289062 2048.066406 860.769531 2073.894531 C 862.835938 2076.132812 863.609375 2077.480469 863.121094 2080.519531 C 815.53125 2093.941406 750.074219 2053.988281 704.066406 2043.722656 C 699.03125 2042.597656 698.140625 2042.335938 703.136719 2046.113281 C 723.164062 2061.253906 764.234375 2078.679688 788.152344 2089.867188 C 824.078125 2106.671875 858.476562 2125.214844 879.328125 2160.425781 C 885.398438 2171.066406 891.664062 2187.523438 873.457031 2189.351562 L 869.125 2189.492188 C 820.859375 2189.128906 758.363281 2150.671875 710.171875 2137.714844 C 692.816406 2133.050781 715.808594 2146.253906 719.121094 2148.386719 C 747.375 2166.582031 777.523438 2181.625 806.121094 2199.398438 C 826.359375 2212.070312 863.390625 2234.84375 869.847656 2258.894531 C 831.566406 2255.46875 799.769531 2227.480469 755.960938 2223.25 C 795.753906 2245.875 862.78125 2263.714844 881.625 2308.910156 C 884.828125 2319.207031 893.789062 2360.046875 877.324219 2362.449219 C 864.484375 2364.324219 821.421875 2346.757812 806.808594 2341.714844 C 789.472656 2336.625 771.789062 2332.488281 754.304688 2327.910156 C 771.320312 2335.273438 835.875 2379.746094 835.683594 2398.277344 C 835.574219 2408.742188 760.964844 2382.640625 753.9375 2380.785156 C 750.351562 2379.839844 747.054688 2379.109375 743.417969 2378.414062 C 737.339844 2377.488281 742.335938 2379.546875 744.683594 2381.117188 C 752.960938 2386.65625 768.042969 2392.738281 778.070312 2398.324219 C 813.472656 2418.246094 861.484375 2447.074219 860.660156 2493.3125 C 857.710938 2518.09375 827.859375 2529.46875 806.0625 2531.203125 C 793.550781 2532.199219 781.019531 2531.273438 768.5625 2530.085938 C 720.203125 2525.3125 666.585938 2507.949219 622.28125 2495.132812 C 583.765625 2483.960938 539.414062 2472.027344 502.480469 2457.597656 C 497.332031 2455.585938 492.652344 2453.84375 488.113281 2450.585938 C 507.941406 2450.015625 525.902344 2454.523438 545.167969 2453.644531 C 547.929688 2453.457031 549.402344 2453.054688 551.152344 2450.863281 C 540.257812 2445.660156 520.941406 2441.894531 514.117188 2432.046875 C 529.910156 2414.597656 538.941406 2419.925781 513.566406 2397.894531 C 509.445312 2394.3125 471.347656 2362.835938 470.699219 2359.339844 C 468.042969 2345.054688 560.914062 2349.78125 519.226562 2343.523438 C 499.648438 2340.585938 472.640625 2322.0625 459.222656 2307.585938 C 450.050781 2296.851562 443.738281 2290.382812 433.117188 2280.996094 C 413.164062 2263.492188 401.722656 2244.664062 379.867188 2227.246094 Z M 298.519531 2428.449219 L 311.085938 2437.613281 C 324.308594 2445.8125 333.46875 2445.300781 344.144531 2451.710938 C 327.859375 2464.144531 283.742188 2462.574219 264.230469 2457.804688 C 214.714844 2443.617188 149.445312 2417.785156 141.039062 2359.605469 C 140.210938 2353.859375 134.554688 2307.890625 136.65625 2305.882812 C 147.8125 2327.90625 169.21875 2344.984375 190.515625 2356.640625 C 214.425781 2369.730469 275.757812 2396.667969 289.339844 2416.183594 C 293 2421.441406 293.652344 2423.554688 298.519531 2428.449219 Z M 86.953125 2208.777344 C 92.871094 2198.65625 95.9375 2211.886719 100.5625 2218.582031 C 109.144531 2231.011719 117.886719 2238.671875 126.363281 2249.585938 C 132.996094 2258.128906 131.609375 2271.957031 130.066406 2282.203125 C 128.734375 2291.039062 124.332031 2286.757812 123.191406 2304.613281 C 122.214844 2319.980469 124.316406 2334.421875 124.519531 2349.722656 C 110.925781 2341.386719 107.367188 2319.304688 105.660156 2304.613281 C 104.195312 2307.308594 106.90625 2322.1875 103.503906 2320.253906 C 77.308594 2305.367188 73.367188 2234.625 86 2210.597656 Z M 1871.121094 2385.695312 C 1865.488281 2385.042969 1860.648438 2383.59375 1855.28125 2381.925781 C 1889.140625 2356.152344 1915.21875 2360.972656 1945.910156 2327.074219 C 1966.210938 2304.644531 1933.890625 2324.484375 1927.289062 2327.992188 C 1912.160156 2336.042969 1906.160156 2338.382812 1889.179688 2342.398438 C 1865.828125 2347.914062 1840.890625 2350.800781 1817.390625 2344.613281 C 1821.859375 2335.621094 1836.378906 2328.796875 1845.148438 2320.9375 C 1879.488281 2290.15625 1883.890625 2277.804688 1930.210938 2261.113281 C 1949.269531 2254.246094 1962.269531 2244.929688 1979.558594 2237.300781 C 1992.019531 2231.800781 1981.441406 2245.015625 1978.171875 2251.027344 C 1975.429688 2256.054688 1952.140625 2297.082031 1954.050781 2297.695312 C 1961.378906 2300.046875 1999.070312 2286.28125 2011.078125 2283.90625 C 2067.339844 2272.785156 2085.140625 2270.914062 2125.96875 2227.734375 C 2133.191406 2220.089844 2137.230469 2212.140625 2143.761719 2204.40625 C 2165.921875 2241.722656 2165.929688 2282.695312 2141.21875 2318.820312 C 2129.898438 2335.371094 2118.769531 2351.390625 2107.25 2367.789062 C 2103.671875 2372.890625 2103.609375 2378.625 2101.378906 2369.996094 C 2099.808594 2363.933594 2106.570312 2345.539062 2108.28125 2338.101562 C 2115.03125 2308.769531 2112.648438 2288.566406 2105.859375 2259.648438 C 2096.019531 2275.699219 2091.070312 2290.414062 2082.179688 2305.578125 C 2062.398438 2339.304688 2019.238281 2360.871094 1982.511719 2370.476562 L 1979.910156 2371.160156 C 1975.519531 2372.308594 1976.699219 2372.308594 1980.621094 2367.769531 C 1985.070312 2362.621094 2023.320312 2319.546875 2021.96875 2316.59375 C 2019.210938 2310.523438 1994.089844 2327.828125 1989.960938 2331.316406 C 1980.070312 2339.6875 1971.25 2349.636719 1961.261719 2358.070312 C 1930.410156 2384.128906 1911.398438 2389.617188 1871.121094 2385.695312 Z M 2016.410156 2172.347656 C 2018.46875 2191.425781 2006.878906 2204.285156 1992.429688 2215.300781 C 1975.371094 2228.308594 1957.910156 2232.171875 1939.308594 2242.511719 C 1932.808594 2246.125 1927.988281 2248.773438 1921.03125 2251.539062 C 1928.890625 2236.996094 1939.511719 2225.632812 1950.578125 2213.546875 C 1966.371094 2196.3125 1993.070312 2176.523438 2016.410156 2172.347656 Z M 2086.578125 2114.382812 C 2089.148438 2105.917969 2090.761719 2104.03125 2094.828125 2098.902344 C 2115.980469 2096.734375 2132.519531 2119.007812 2138.460938 2136.4375 C 2146.101562 2164.949219 2142.269531 2180.730469 2127.050781 2205.367188 C 2107.679688 2236.710938 2070.910156 2261.101562 2033.820312 2265.214844 C 2043.679688 2249.421875 2056.660156 2240.257812 2066.609375 2224.796875 C 2069.488281 2220.316406 2059.601562 2227.472656 2056.910156 2228.847656 C 2038.5 2238.273438 2030.46875 2243.859375 2013.769531 2255.898438 C 2001.289062 2264.890625 1988.890625 2273.800781 1974.371094 2279.1875 C 1988.941406 2255.703125 2003.808594 2231.90625 2018.53125 2208.519531 C 2037.539062 2178.324219 2063.421875 2153.914062 2082.609375 2123.015625 C 2084.421875 2120.113281 2085.769531 2117.710938 2086.578125 2114.382812 Z M 377.109375 2274.9375 C 383.082031 2278.550781 430.007812 2306.164062 425.394531 2312.359375 C 423.242188 2315.25 387.332031 2321.714844 381.265625 2322.359375 C 329.519531 2326.621094 328.285156 2317.789062 285.382812 2296.457031 C 258.574219 2283.128906 323.570312 2332.96875 326.300781 2334.550781 C 336.507812 2340.453125 347.710938 2343.597656 358.890625 2347.078125 C 364.074219 2348.703125 368.925781 2350.269531 374.027344 2352.167969 C 357.078125 2356.496094 346.886719 2359.871094 328.378906 2361.605469 C 299.121094 2364.664062 303.800781 2365.734375 281.597656 2347.195312 C 264.859375 2333.21875 232.960938 2319.464844 211.6875 2314.417969 C 218.128906 2321.011719 258.757812 2350.515625 258.710938 2356.851562 C 258.664062 2362.71875 214.785156 2347.777344 210.390625 2345.960938 C 176.996094 2332.148438 148.773438 2309.007812 143.140625 2271.507812 C 141.976562 2259.777344 140.753906 2261.394531 152.367188 2263.910156 C 186.355469 2272.160156 187.816406 2278.375 226.269531 2277.757812 C 258.574219 2277.238281 244.863281 2286.117188 255.757812 2310.636719 C 256.511719 2312.339844 266.578125 2330.0625 261.660156 2316.390625 C 259.230469 2309.636719 248.882812 2283.351562 259.144531 2279.691406 C 272.859375 2274.796875 286.644531 2278.054688 300.628906 2280.132812 C 282.40625 2259.460938 266.472656 2242.550781 249.527344 2220.34375 L 245.628906 2215.230469 C 239.109375 2206.628906 232.570312 2198.164062 225.777344 2189.777344 C 218.296875 2180.660156 214.757812 2175.410156 210.195312 2164.429688 C 244.75 2157.34375 260.960938 2175.40625 286.816406 2194.515625 C 296.140625 2201.402344 329.417969 2231.703125 332.484375 2242.042969 C 310.660156 2233.515625 286.277344 2217.8125 262.570312 2214.828125 C 252.710938 2213.585938 252.90625 2217.210938 260.332031 2221.863281 C 281.316406 2234.996094 320.183594 2249.234375 344.691406 2259.289062 C 349.246094 2261.160156 353.714844 2263.074219 358.210938 2265.078125 C 364.789062 2268.105469 370.820312 2271.347656 377.109375 2274.9375 Z M 191.226562 2233.386719 C 182.042969 2227.691406 187.101562 2233.953125 190.734375 2238.28125 C 193.226562 2241.113281 214.6875 2263.902344 213.0625 2265.527344 C 209.1875 2269.398438 161.511719 2254.40625 154.34375 2251.429688 C 135.675781 2243.074219 116.671875 2228.835938 107.214844 2210.410156 L 105.886719 2207.820312 C 97.628906 2191.734375 107.523438 2184.050781 103.640625 2177.324219 C 98.238281 2167.960938 93.40625 2167.644531 92.414062 2153.90625 C 90.914062 2133.207031 104.671875 2112.738281 120.664062 2100.933594 C 129.191406 2094.640625 137.265625 2091.222656 147.632812 2089.34375 C 162.328125 2086.683594 172.738281 2098.65625 178.453125 2110.984375 C 182.203125 2119.066406 180.660156 2119.511719 172.972656 2115.113281 C 157.722656 2106.382812 153.257812 2095 132.871094 2100.792969 C 148.984375 2108.816406 158.996094 2117.316406 169.652344 2132.132812 C 179.257812 2145.496094 185.960938 2158.683594 196.390625 2172.402344 C 204.289062 2182.789062 211.359375 2194.925781 218.742188 2205.828125 C 229.878906 2221.90625 240.746094 2234.871094 252.933594 2249.941406 C 266.738281 2267.011719 247.785156 2259.730469 238.214844 2256.4375 C 221.246094 2250.601562 206.523438 2242.609375 191.226562 2233.386719 Z M 2038.578125 2121.609375 C 2029.449219 2109.878906 2055.03125 2017.996094 2055.839844 1997.027344 C 2048.988281 2010.488281 2038.910156 2060.3125 2032.75 2078.617188 C 2025.511719 2100.144531 2012.128906 2140.214844 1997.621094 2148.882812 C 1996.449219 2131.984375 2011.480469 2083.261719 2015.269531 2064.804688 C 2020.941406 2037.175781 2029.691406 2006.378906 2033.621094 1978.839844 C 2024.828125 1996.683594 2010.660156 2063.75 1989.910156 2108.984375 C 1949.199219 2195.921875 1853.488281 2269.761719 1789.339844 2341.546875 C 1776.5 2355.914062 1788.25 2348.257812 1794.308594 2362.980469 C 1801.238281 2379.828125 1783.519531 2390.738281 1770.28125 2398.4375 C 1731.359375 2421.078125 1677.710938 2436.164062 1634.03125 2447.597656 C 1609.351562 2453.546875 1584.660156 2459.46875 1559.988281 2465.464844 C 1579.699219 2465.613281 1602.011719 2461.175781 1621.988281 2458.851562 C 1666.050781 2453.71875 1710.089844 2448.300781 1754.140625 2443.054688 C 1759.101562 2442.464844 1778.609375 2439.765625 1781.589844 2443.097656 C 1790.269531 2452.789062 1779.828125 2454.433594 1770.929688 2457.363281 C 1727.519531 2471.632812 1679.851562 2481.324219 1635.328125 2493.71875 C 1584.339844 2507.921875 1471.421875 2541.371094 1422.121094 2528.28125 C 1409.648438 2524.972656 1404.488281 2519.269531 1406.949219 2506.28125 C 1414.960938 2475.902344 1530.871094 2458.113281 1564.191406 2441.199219 C 1532.949219 2443.066406 1459 2472.191406 1435.101562 2448.261719 C 1441.128906 2427.445312 1544.539062 2394.210938 1569.910156 2383.1875 C 1583.449219 2377.183594 1601.421875 2367.820312 1614.679688 2363.1875 C 1609.699219 2363.121094 1550.101562 2378.566406 1540.378906 2380.6875 C 1497.921875 2389.960938 1455.308594 2393.386719 1412.210938 2386.0625 C 1357.550781 2376.777344 1334.179688 2352.0625 1374.488281 2305.179688 C 1386.570312 2291.128906 1400.871094 2279.113281 1415.789062 2268.210938 C 1427.28125 2259.8125 1475.21875 2227.625 1484.789062 2224.089844 C 1445.039062 2230.214844 1391.191406 2274.078125 1364.410156 2276.761719 C 1342.261719 2278.980469 1370.449219 2245.898438 1374.921875 2240.9375 C 1399.210938 2213.984375 1456.101562 2165.3125 1489.609375 2152.210938 C 1491.839844 2151.339844 1493.339844 2150.941406 1495.710938 2150.777344 C 1462.230469 2151.003906 1373.371094 2209.878906 1359.398438 2182.347656 C 1348.988281 2161.816406 1373.988281 2145.367188 1389.601562 2133.222656 C 1431.800781 2100.40625 1477.371094 2084.324219 1523.441406 2059.082031 C 1528.601562 2056.253906 1533.25 2053.230469 1538.109375 2049.917969 C 1488.960938 2057.054688 1426.679688 2088.265625 1380.761719 2086.023438 C 1337.289062 2083.902344 1401.03125 2049.140625 1410.941406 2044.179688 C 1438.339844 2030.464844 1467.75 2020.066406 1496.128906 2008.507812 C 1502.53125 2005.898438 1514.128906 2001.210938 1519.660156 1997.3125 C 1480.300781 2004.257812 1424.71875 2031.652344 1388.789062 2004.777344 C 1358.46875 1982.101562 1409.808594 1925.972656 1428.539062 1910.492188 C 1484.308594 1865.726562 1581.128906 1851.023438 1665.019531 1835.554688 C 1799.171875 1811.164062 1916.21875 1809.019531 2041.378906 1744.730469 C 2048.320312 1740.71875 2150.75 1681.070312 2134.660156 1677.609375 C 2129.238281 1676.449219 2121.789062 1685.78125 2115.550781 1689.320312 C 2102.039062 1696.980469 2084.289062 1703.851562 2069.679688 1711.191406 C 2060.078125 1716.03125 2050.511719 1720.941406 2040.898438 1725.769531 C 1960.960938 1765.941406 1899.71875 1779.300781 1812.519531 1793.910156 C 1787.378906 1798.121094 1762.320312 1802.359375 1737.25 1807.035156 C 1699.601562 1814.089844 1662.359375 1819.554688 1626.230469 1826.105469 C 1586.988281 1833.226562 1554.378906 1841.046875 1518.628906 1849.839844 C 1448.378906 1866.292969 1379.328125 1878.132812 1312.449219 1906.667969 C 1295.730469 1913.808594 1285.78125 1925.132812 1268.011719 1914.980469 C 1256.5 1908.410156 1242.949219 1897.21875 1229.050781 1902.886719 C 1246.671875 1916.015625 1258.378906 1919.105469 1265.5 1942.484375 C 1269.078125 1954.261719 1256.828125 1936.316406 1254.738281 1936.039062 C 1251.890625 1935.660156 1246.238281 1948.40625 1242.488281 1952.386719 C 1220.808594 1975.410156 1170.921875 1972.949219 1140.238281 1977.605469 C 1134.960938 1978.40625 1145.179688 1981.296875 1146.410156 1981.410156 C 1172.050781 1983.796875 1230.019531 1987.316406 1250.761719 1973.019531 C 1276.21875 1955.457031 1270.601562 1951.171875 1270.378906 1998.414062 C 1270.238281 2028.800781 1270.921875 2059.144531 1270.328125 2089.535156 C 1269.96875 2106.375 1266.101562 2199.488281 1261.738281 2208.792969 C 1255.519531 2222.082031 1242.191406 2183.464844 1241.050781 2177.898438 C 1237.761719 2161.761719 1243.339844 2111.035156 1244.191406 2091.035156 L 1244.308594 2088.03125 C 1244.789062 2077.433594 1248.988281 2009.347656 1246.820312 2005.402344 C 1243.28125 1998.941406 1229.03125 2006.046875 1223.121094 2007.757812 C 1167.328125 2023.925781 1124.769531 2021.234375 1068.261719 2023.304688 C 1045.621094 2024.171875 1060.21875 2040.628906 1070.480469 2043.140625 C 1086.328125 2047.015625 1121.390625 2043.910156 1138.371094 2041.835938 C 1145.519531 2040.882812 1195.761719 2032.324219 1196.238281 2039.160156 C 1196.378906 2041.171875 1191.339844 2044.214844 1189.980469 2047.851562 C 1190.539062 2053.476562 1204.050781 2051.6875 1175.308594 2064.746094 C 1166.480469 2068.761719 1157.828125 2072.335938 1149.21875 2076.878906 C 1116.570312 2094.128906 1101.878906 2113.035156 1091.988281 2148.707031 C 1086.960938 2166.835938 1085.390625 2185.71875 1083.640625 2204.386719 C 1078.308594 2296.332031 1088.191406 2380.789062 1084.390625 2460.355469 C 1079.511719 2438.839844 1072.71875 2297.730469 1071.578125 2266.664062 C 1069.460938 2203.953125 1070.058594 2142.546875 1071.261719 2079.863281 C 1071.410156 2067.898438 1070.261719 2035.632812 1051.800781 2057.820312 C 1032.589844 2080.910156 1048.769531 2125.121094 1039.96875 2144.101562 C 1030.558594 2095.351562 1045.308594 2070.808594 1041.921875 2028.808594 C 1040.410156 2010.050781 1034.828125 2009.847656 1021.261719 1998.515625 C 1017.03125 1995.113281 993.757812 1977.714844 990.8125 1987.921875 C 990.03125 1990.617188 990.140625 1995.183594 990.027344 1998.121094 C 988.398438 2020.558594 989.222656 2042.847656 988.722656 2065.300781 C 987.496094 2105.949219 985.964844 2146.597656 985.605469 2187.269531 C 984.941406 2262.507812 984.480469 2337.746094 984.722656 2412.984375 C 984.949219 2483.253906 982.867188 2552.808594 982.503906 2622.851562 C 982.464844 2630.023438 982.136719 2650.175781 984.121094 2656.464844 L 984.835938 2655.957031 C 1019.179688 2631.53125 994.839844 2576.582031 994.847656 2535.195312 C 994.847656 2528.261719 992.75 2511.472656 996.875 2506.847656 C 1008.921875 2493.335938 1003.429688 2567.636719 1003.371094 2573.09375 C 1003.050781 2603.390625 1006.71875 2631.992188 1003.941406 2662.359375 L 1003.648438 2665.613281 L 1003 2672.234375 C 999.285156 2710.101562 1021.679688 2700.75 1050.078125 2697.101562 C 1094.480469 2691.398438 1152.128906 2699.199219 1177.210938 2654.378906 C 1205.199219 2604.347656 1198.761719 2548.136719 1199.121094 2492.738281 C 1199.46875 2437.585938 1199.519531 2382.121094 1200.648438 2327.007812 C 1201.011719 2309.773438 1204.558594 2368.046875 1204.558594 2368.238281 C 1207.71875 2446.421875 1212.558594 2528.6875 1211.121094 2606.660156 C 1210.820312 2622.625 1212 2672.386719 1202.03125 2684.050781 C 1187.710938 2700.8125 1182.609375 2691.984375 1170.308594 2703.976562 C 1140.808594 2732.710938 1053.988281 2719.671875 1049.308594 2722.617188 C 1045.03125 2725.304688 1085.640625 2739.097656 1090.140625 2740.253906 C 1119.300781 2747.746094 1165.851562 2748.316406 1194.808594 2740.207031 C 1204.648438 2737.449219 1237.101562 2729.34375 1240.75 2719.816406 C 1243.769531 2711.902344 1243.699219 2684.464844 1243.988281 2674.527344 C 1244.449219 2658.679688 1244.800781 2642.828125 1245.078125 2626.972656 C 1245.640625 2595.09375 1246.28125 2570.292969 1242.371094 2538.3125 C 1240.160156 2520.273438 1245.871094 2525.511719 1250.480469 2514.753906 C 1253.351562 2508.03125 1256.410156 2498.871094 1260.851562 2510.972656 C 1263.441406 2518.023438 1262.71875 2541.46875 1263.691406 2515.957031 C 1265.609375 2465.644531 1267.089844 2415.007812 1265.53125 2364.679688 C 1264.128906 2319.414062 1260.539062 2266.867188 1265.710938 2222.230469 C 1269.460938 2189.839844 1269.609375 2318.351562 1269.589844 2328.613281 C 1269.339844 2417.148438 1271.410156 2505.640625 1270.371094 2594.1875 C 1269.980469 2627.15625 1270.910156 2714.460938 1244.269531 2735.632812 C 1190.03125 2778.738281 1082.820312 2790.164062 1020.058594 2760.847656 L 1017.628906 2759.714844 C 968.367188 2736.703125 978.34375 2689.070312 979.621094 2643.128906 C 979.949219 2631.289062 979.941406 2619.539062 979.75 2607.695312 C 979.199219 2574.109375 981.238281 2543.097656 982.113281 2509.863281 C 982.796875 2483.839844 981.011719 2457.78125 979.824219 2431.792969 C 979.238281 2418.863281 978.738281 2405.945312 978.339844 2393.007812 C 977.398438 2336.414062 976.367188 2279.824219 975.519531 2223.234375 C 974.296875 2136.523438 974.875 2052.199219 970.734375 1965.328125 C 969.828125 1946.304688 969.640625 1898.898438 997.191406 1898.019531 C 1014.128906 1897.476562 1017.121094 1919.476562 1025.558594 1931.535156 C 1046.421875 1961.332031 1085.589844 1966.925781 1119.308594 1967.953125 C 1142.058594 1968.402344 1179.378906 1968.589844 1197.839844 1955.277344 C 1209.609375 1946.785156 1214.820312 1935.019531 1218.71875 1921.484375 C 1227.03125 1889.996094 1227.25 1897.6875 1254.929688 1880.511719 C 1302.058594 1851.261719 1340.71875 1828.121094 1393.171875 1808.53125 C 1405.328125 1803.988281 1417.691406 1800.421875 1430.148438 1796.800781 C 1593.140625 1750.320312 1779.628906 1729.648438 1949.398438 1700.308594 C 2031.449219 1685.558594 2100.859375 1669.320312 2178.28125 1637.148438 C 2195.671875 1629.921875 2188.308594 1636.71875 2183.269531 1652.089844 C 2171.839844 1686.921875 2161.460938 1722.191406 2150.898438 1757.300781 C 2138.578125 1799.03125 2126.308594 1842.785156 2115.070312 1884.421875 C 2103.398438 1927.695312 2091.628906 1969.925781 2079.75 2012.167969 L 2046.25 2119.710938 C 2044.160156 2126.070312 2043.5 2130.84375 2038.859375 2134.964844 Z M 1073.851562 1760.148438 L 1075.890625 1762.410156 C 1098.449219 1787.390625 1106.429688 1806.296875 1118.289062 1837.007812 C 1118.609375 1837.839844 1121.03125 1841.152344 1121.699219 1842.113281 C 1136.441406 1784.949219 1172.148438 1750.351562 1214.851562 1712.550781 C 1255.558594 1676.519531 1303.949219 1644.308594 1350.46875 1616.191406 C 1361.230469 1609.691406 1372.058594 1603.328125 1382.960938 1597.039062 C 1467.601562 1548.160156 1556.289062 1506.949219 1644.640625 1465.308594 C 1655.53125 1459.800781 1728.25 1421.460938 1734.191406 1425.128906 C 1745.328125 1432.011719 1747.859375 1474.089844 1770.339844 1472.871094 C 1781.851562 1472.238281 1814.691406 1457.589844 1825.261719 1461.621094 C 1832.441406 1464.371094 1841.109375 1495.609375 1838.941406 1504.03125 C 1835.121094 1518.851562 1797.050781 1530.199219 1823.839844 1522.230469 C 1848.171875 1514.988281 1871.589844 1502.421875 1895.949219 1494.050781 C 1900.578125 1503.679688 1924.421875 1556.308594 1916.96875 1563.261719 C 1914.089844 1565.941406 1868.289062 1576.808594 1859.199219 1579.410156 C 1843.800781 1583.808594 1828.578125 1588.320312 1813.011719 1592.109375 C 1778.070312 1600.621094 1742.839844 1607.628906 1707.929688 1616.351562 C 1700.878906 1614.441406 1584.308594 1644.039062 1567.648438 1648.308594 C 1519.980469 1660.511719 1477.941406 1673.738281 1433.160156 1687.910156 C 1390.449219 1701.429688 1348.691406 1722.101562 1312.398438 1741.199219 C 1286.519531 1754.820312 1230.140625 1794.128906 1213.460938 1815.980469 C 1251.960938 1789.128906 1244.609375 1786.269531 1301.53125 1754.199219 C 1413.210938 1691.820312 1609.328125 1654.550781 1736.570312 1627.179688 C 1846.171875 1603.609375 1954.511719 1575.5 2061.449219 1541.820312 C 2074.839844 1537.601562 2102.980469 1524.738281 2115.78125 1526.460938 C 2118.800781 1526.859375 2119.03125 1528.339844 2119.378906 1531.761719 C 2121 1547.308594 2105.488281 1595.238281 2102.109375 1614.058594 C 2095.601562 1650.398438 2092.390625 1646.128906 2057.871094 1655.28125 C 2012.351562 1667.339844 1965.851562 1675.238281 1919.578125 1683.769531 C 1905.691406 1686.320312 1891.808594 1688.929688 1877.910156 1691.449219 C 1869.691406 1692.941406 1861.449219 1694.359375 1853.191406 1695.691406 C 1665.511719 1725.179688 1399.511719 1747.328125 1245.910156 1864.28125 C 1230.46875 1876.035156 1195.640625 1899.5 1192.519531 1919.0625 C 1190.441406 1937.949219 1196.398438 1934.851562 1173.339844 1943.820312 C 1134.660156 1958.511719 1073.929688 1968.292969 1044.640625 1930.828125 C 1027.558594 1908.988281 1052.648438 1913.3125 1004.589844 1877.289062 C 894.378906 1794.859375 827.28125 1770.488281 695.46875 1736.871094 C 692.457031 1736.101562 689.441406 1735.339844 686.429688 1734.578125 C 585.984375 1709.191406 478.824219 1693.191406 376.910156 1670.511719 C 325.226562 1659 275.21875 1648.898438 224.789062 1635.679688 C 199.785156 1629.128906 175.128906 1623.238281 150.804688 1616.210938 C 121.035156 1608.210938 128.199219 1609.601562 118.621094 1579.511719 C 112.613281 1560.640625 105.996094 1542.609375 99.125 1524.070312 C 93.421875 1508.691406 92.703125 1508.210938 107.664062 1511.589844 C 143.027344 1519.578125 178.257812 1531.261719 213.246094 1540.839844 L 214.867188 1541.261719 C 281.769531 1558.679688 346.765625 1575.570312 414.242188 1590.960938 C 537.363281 1619.011719 668.449219 1645.28125 788.132812 1684.53125 C 858.507812 1707.621094 940.113281 1742.269531 996.570312 1790.710938 L 998.902344 1792.710938 C 1028.011719 1817.933594 1033.820312 1820.90625 1004.160156 1792.75 C 973.914062 1764.191406 943.871094 1744.941406 907.46875 1725.269531 C 822.191406 1679.171875 719.476562 1651.488281 626.222656 1626.539062 C 591.863281 1617.351562 549.054688 1605.441406 514.128906 1600.191406 C 509.949219 1599.570312 505.75 1599.011719 501.523438 1599.058594 C 485.546875 1597.488281 396.882812 1575.210938 369.410156 1568.660156 C 361.949219 1566.898438 331.097656 1559.761719 328.042969 1553.789062 C 323.371094 1539.929688 341.128906 1493.199219 353.40625 1495.730469 C 360.859375 1497.261719 386.308594 1509 397.0625 1512.769531 C 414.34375 1518.890625 433.585938 1526.710938 452.015625 1527.261719 C 446.941406 1528.578125 456.167969 1526.28125 444.171875 1522.28125 C 428.417969 1517.03125 414.0625 1512.710938 398.636719 1506.179688 C 413.625 1460.570312 421.125 1460.789062 464.144531 1475.390625 C 497.113281 1486.589844 478.902344 1462.738281 500.621094 1454.640625 C 514.773438 1449.359375 540.480469 1464.710938 553.542969 1470.859375 C 554.386719 1471.230469 555.230469 1471.589844 556.074219 1471.949219 C 727.007812 1543.460938 947.828125 1620.621094 1073.851562 1760.148438 Z M 1936.851562 1483.011719 C 1939.449219 1489.328125 1962.238281 1546.789062 1961.929688 1548.328125 C 1961.261719 1551.71875 1949.671875 1555.199219 1944.929688 1554.320312 C 1938.070312 1531.421875 1934.371094 1512.261719 1925.53125 1489.21875 L 1924.320312 1486.058594 L 1923.128906 1483.011719 C 1914.78125 1461.558594 1905.96875 1441.109375 1900.101562 1418.761719 C 1890.539062 1382.398438 1915.378906 1429.320312 1919.199219 1437.859375 L 1919.660156 1438.898438 C 1926.058594 1453.230469 1930.628906 1468.410156 1936.851562 1483.011719 Z M 1169.511719 1361.628906 C 1176.078125 1341.648438 1181.519531 1321.351562 1185.929688 1300.769531 C 1189.628906 1283.550781 1191.078125 1293.519531 1195.789062 1306.371094 C 1205.929688 1334.019531 1206.128906 1356.800781 1205.921875 1385.699219 C 1221.851562 1347.261719 1218.539062 1305.738281 1202.011719 1268.070312 C 1198.210938 1259.398438 1195.28125 1255.800781 1188.878906 1249 C 1232.910156 1269.988281 1216.03125 1302.519531 1242.839844 1337.828125 C 1241.96875 1280.511719 1232.210938 1282.230469 1204.019531 1237.851562 C 1198.121094 1228.550781 1205.808594 1233.421875 1211.941406 1235.570312 C 1248.199219 1248.339844 1256.289062 1258.921875 1286.328125 1278.828125 C 1304.640625 1290.96875 1274.210938 1267.808594 1291.71875 1267.480469 C 1314.480469 1267.050781 1359.210938 1309.058594 1374.339844 1326.128906 C 1389.089844 1342.75 1402.378906 1360.191406 1417.488281 1376.800781 C 1429.96875 1390.511719 1427.941406 1385.449219 1422.839844 1371.578125 C 1403.171875 1318.03125 1377.578125 1297.75 1341.328125 1256.941406 C 1382.160156 1269.890625 1422.011719 1286.351562 1461.71875 1302.371094 C 1464.410156 1303.460938 1468.660156 1304.460938 1470.578125 1301.230469 C 1472.199219 1298.511719 1470.300781 1285.921875 1480.269531 1282.359375 C 1513.359375 1270.570312 1585.339844 1309.421875 1608.011719 1334.449219 C 1624.371094 1352.738281 1635.410156 1370.980469 1648.539062 1391.421875 C 1650.019531 1393.710938 1650.828125 1394.628906 1653.160156 1396.058594 C 1655.351562 1376.769531 1655.949219 1348.269531 1664.398438 1331.140625 C 1664.039062 1339.660156 1661.140625 1355.730469 1664.808594 1363.019531 C 1665.601562 1364.589844 1665.570312 1364.261719 1668.121094 1364.28125 C 1676.851562 1364.339844 1679.871094 1356.378906 1687.238281 1352.140625 L 1688.621094 1351.339844 L 1690.140625 1350.519531 C 1689.050781 1354.21875 1683.199219 1369.921875 1683.128906 1371.839844 C 1684.789062 1371.039062 1693.550781 1357.429688 1695.570312 1354.789062 C 1702.859375 1345.230469 1711.160156 1337.539062 1724.011719 1340.011719 C 1735.699219 1342.679688 1730.859375 1348.761719 1725.890625 1355.878906 C 1721.75 1361.78125 1719.460938 1364.101562 1718.171875 1371.539062 C 1723 1370.308594 1728.210938 1359.679688 1731.160156 1355.601562 C 1733.25 1352.71875 1734.839844 1350.921875 1737.691406 1348.761719 C 1741.210938 1346.308594 1740.628906 1347.300781 1745.660156 1347.890625 C 1766.371094 1350.320312 1772.449219 1353.441406 1791.359375 1342.660156 C 1800.308594 1337.558594 1815.179688 1338.328125 1820.25 1348.601562 C 1824.089844 1356.398438 1825.179688 1364.738281 1828.519531 1372.628906 C 1834.28125 1386.25 1828.480469 1359.269531 1828.011719 1356.550781 C 1819.429688 1307.269531 1835.789062 1364.808594 1837.640625 1389.199219 C 1838.089844 1395.160156 1840.980469 1422.808594 1844.988281 1425.75 C 1849.789062 1429.25 1842.488281 1373.839844 1841.398438 1367.449219 C 1839.820312 1358.179688 1838.03125 1348.949219 1836.480469 1339.671875 C 1836.339844 1338.800781 1835.371094 1337.171875 1836.230469 1337.300781 C 1846.898438 1341.039062 1866.878906 1401.96875 1870.351562 1414.941406 C 1872.75 1424.328125 1892.480469 1500.449219 1870.609375 1496.289062 C 1852.738281 1492.890625 1851.710938 1430.261719 1835.421875 1433.5 C 1809.449219 1438.671875 1783.621094 1472.671875 1767.019531 1434.320312 C 1761.011719 1420.441406 1757.820312 1406.980469 1740.058594 1404.699219 C 1723.640625 1402.589844 1684.21875 1424.25 1668.441406 1431.949219 C 1647.890625 1441.96875 1627.421875 1452.199219 1606.871094 1462.230469 L 1481.171875 1523.328125 C 1466.769531 1530.46875 1453.769531 1536.75 1439.601562 1543.789062 C 1352.160156 1587.160156 1219.019531 1678.390625 1153.628906 1746.878906 C 1146.851562 1753.980469 1140.761719 1760.988281 1134.648438 1768.660156 C 1129.078125 1776.019531 1125.421875 1780.5 1119.761719 1786.648438 C 1102.660156 1770.410156 1089.078125 1749.519531 1070.890625 1732.328125 C 1023.921875 1687.929688 984.019531 1661.421875 929.105469 1628.328125 C 910.082031 1616.871094 894.941406 1608.058594 874.914062 1598.109375 C 841.464844 1581.488281 810.726562 1566.089844 776.195312 1551.460938 C 751.84375 1541.140625 728.800781 1528.328125 703.933594 1517.789062 C 661.074219 1499.640625 617.722656 1482.839844 575.070312 1464.671875 C 561.300781 1458.410156 510.011719 1431.640625 498.613281 1432.988281 C 476.769531 1435.589844 485.429688 1470.171875 448.179688 1456.808594 C 433.199219 1451.441406 424.964844 1447.148438 408.871094 1452.101562 C 398.054688 1456.929688 392.101562 1475.738281 387.011719 1486.179688 C 380.644531 1498.789062 373.808594 1490.75 362.964844 1484.601562 C 337.023438 1469.871094 338.960938 1471.519531 322.285156 1497.199219 C 315.238281 1507.988281 298.15625 1537.050781 286.492188 1540.941406 C 279.160156 1543.390625 272.042969 1540.390625 265.386719 1537.53125 C 271.839844 1502.75 314.589844 1401.460938 332.640625 1368.78125 C 346.375 1346.378906 351.023438 1351.789062 376.175781 1357.609375 C 416.859375 1367.039062 431.929688 1371.820312 474.921875 1369.460938 C 533.785156 1365.949219 477.859375 1391.128906 468.359375 1420.558594 C 467.429688 1426.699219 467.355469 1426.710938 473.320312 1425.339844 C 492.707031 1419.550781 508.289062 1392.980469 521.613281 1377.339844 C 543.042969 1352.171875 557.023438 1342.210938 587.609375 1330.550781 C 620.640625 1318.730469 640.558594 1330 676.171875 1318 C 707.890625 1307.300781 752.765625 1277.839844 784.542969 1278.109375 C 798.066406 1278.230469 791.109375 1293.539062 798.910156 1299.210938 C 805.113281 1303.71875 818.828125 1288.140625 824.136719 1283.710938 C 848.980469 1262.980469 874.746094 1243.550781 900.457031 1223.929688 C 934.300781 1198.070312 917.835938 1216.339844 902.996094 1235 C 884.242188 1258.390625 852.773438 1291.699219 849.683594 1322.558594 C 848.992188 1329.46875 858.855469 1317.28125 860.550781 1315.609375 C 893.742188 1282.96875 918.1875 1268.390625 959.246094 1247.628906 L 962.355469 1246.050781 C 980.355469 1237.011719 995.832031 1227.539062 1015.179688 1221.140625 C 1006.828125 1239.910156 997.894531 1247.488281 987.78125 1264.070312 C 981.0625 1275.101562 980.941406 1283.019531 972.703125 1295.78125 C 939.46875 1347.28125 992.855469 1281.039062 1000.21875 1273.03125 C 1009.238281 1263.199219 1017.570312 1253.828125 1025.78125 1243.269531 C 1026.21875 1289.578125 1003.988281 1311.621094 1009.039062 1363.339844 C 1011.628906 1389.929688 1020.058594 1330.160156 1020.328125 1328.660156 C 1022.238281 1318.269531 1027.339844 1295.691406 1033.261719 1288 C 1038.628906 1294.03125 1054.289062 1346.308594 1060 1360.109375 C 1077.378906 1402.089844 1099.859375 1441.410156 1115.71875 1484.171875 C 1120.449219 1497.101562 1122.25 1509 1124.960938 1522.339844 C 1129.351562 1510.101562 1130.050781 1483.230469 1134.121094 1466.921875 C 1142.988281 1431.339844 1158.03125 1396.550781 1169.511719 1361.628906 Z M 1004.308594 1111.78125 L 1006.761719 1112.820312 C 1016.890625 1120.808594 1018.578125 1161.171875 1012.679688 1165.148438 C 1004.25 1166.21875 982.890625 1156.53125 981.417969 1148.53125 C 979.59375 1138.621094 991.726562 1115.421875 1002.179688 1111.820312 Z M 1029.699219 1097.921875 C 1029.589844 1070.550781 1021.179688 1058.660156 1043.488281 1038.710938 C 1083.871094 1002.578125 1126.53125 1015.320312 1153.140625 1059.578125 C 1164.980469 1079.269531 1155.96875 1084.839844 1150.410156 1104.28125 C 1144.5 1124.898438 1141.691406 1145.371094 1140.210938 1166.75 C 1139.761719 1173.109375 1140.691406 1168.671875 1142.789062 1164.320312 C 1150.921875 1147.449219 1176.828125 1086.730469 1200.558594 1117.511719 C 1209.53125 1129.160156 1229.710938 1157.648438 1202.101562 1159.988281 C 1196.820312 1160.441406 1194.359375 1159.589844 1194.039062 1154.648438 C 1193.570312 1147.421875 1189.160156 1155.898438 1186.710938 1159.199219 C 1154.480469 1202.738281 1128.378906 1272.898438 1114.429688 1325.390625 C 1111.078125 1338 1107.949219 1350.660156 1104.851562 1363.328125 C 1103.699219 1368.53125 1099.078125 1397.800781 1098.46875 1399.148438 C 1098.378906 1399.148438 1090.210938 1381.660156 1089.550781 1380.398438 C 1076.808594 1356.019531 1069.359375 1342.519531 1060.148438 1315.800781 C 1034.449219 1241.25 1030.078125 1175.941406 1029.699219 1097.921875 Z M 1112.480469 991.78125 C 1119.570312 996.128906 1121.269531 997.398438 1126.320312 1004.070312 C 1085.550781 1000.078125 1085.199219 996.910156 1046.320312 1014.03125 C 1057.691406 994.179688 1088.710938 977.449219 1110.179688 990.390625 Z M 537.433594 1334.558594 C 531.988281 1338.429688 528.316406 1340.828125 521.816406 1342.640625 C 522.113281 1328.578125 524.449219 1321.800781 526.8125 1308.550781 C 512.417969 1316.75 497.664062 1334.378906 487.039062 1339.289062 C 474.140625 1345.25 503.242188 1315.28125 504.359375 1313.980469 C 511.34375 1305.46875 521.15625 1290.039062 523.550781 1279.339844 C 521.898438 1278.070312 514.917969 1286.25 513.472656 1287.699219 C 504.328125 1295.988281 464.980469 1329.441406 453.929688 1328.070312 C 456.308594 1323.609375 468.230469 1312.820312 473.210938 1305.25 C 476.699219 1299.789062 477.910156 1296.898438 480.039062 1290.839844 C 456.796875 1290.570312 439.75 1299.300781 419.890625 1298.878906 C 413.992188 1298.761719 410.859375 1297.929688 405.394531 1295.890625 C 416.597656 1266.53125 447.410156 1251.140625 459.738281 1218.128906 C 443.078125 1232.191406 430.898438 1247.730469 415.75 1262.96875 L 413.628906 1265.101562 C 408.945312 1269.75 393.003906 1283.691406 385.9375 1278.320312 C 379.847656 1273.691406 398.570312 1261.210938 373.296875 1273.039062 C 358.46875 1279.96875 350.753906 1285.929688 334.007812 1290.609375 C 334.183594 1282.800781 351.160156 1263.261719 356.449219 1256.011719 C 381.449219 1220.75 387.738281 1195.53125 403.898438 1156.121094 C 407.191406 1148.089844 420.476562 1120.75 421.648438 1115.589844 C 412.679688 1115.960938 365.078125 1197.191406 390.121094 1144.050781 C 391.949219 1140.171875 407.070312 1111.640625 406.71875 1110.320312 C 406.207031 1108.421875 394.507812 1116 391.816406 1117.128906 C 379.144531 1122.429688 333.074219 1134.878906 320.886719 1132.28125 C 316.023438 1131.25 326.039062 1121.160156 327.929688 1118.800781 C 343.804688 1098.941406 363.027344 1080.871094 380.300781 1062.101562 C 417.769531 1019.871094 440.386719 995.191406 498.351562 983.621094 C 514.1875 980.449219 497.476562 989.269531 493.503906 991.660156 C 476.585938 1002.160156 457.398438 1013.390625 441.230469 1024.558594 L 438.726562 1026.289062 C 421.933594 1038.941406 409.460938 1050.730469 395.730469 1066.648438 C 410.660156 1055.011719 484.714844 1003.539062 500.421875 1011.21875 C 513.257812 1017.488281 457.074219 1042.410156 495.699219 1033.679688 C 517.84375 1028.679688 512.21875 1030.820312 498.144531 1043.351562 C 503.683594 1041.449219 530.652344 1029.578125 531.460938 1040.949219 C 532.335938 1053.21875 482.726562 1074.570312 518.644531 1066.300781 C 528.089844 1064.128906 534.488281 1060.210938 542.054688 1058.390625 C 555.347656 1055.179688 568.953125 1073.078125 557.503906 1083.160156 C 551.019531 1088.859375 530.546875 1095.25 520.121094 1101.730469 C 499.574219 1115.558594 456.589844 1159.230469 444.21875 1180.140625 C 440.789062 1185.929688 464.652344 1158.808594 468.820312 1154.589844 C 496.296875 1126.761719 527.046875 1100.859375 566.53125 1093.410156 C 582.300781 1092.820312 577.164062 1098.121094 569.054688 1106.351562 C 566.089844 1109.289062 563.078125 1112.039062 560.128906 1115.039062 C 555.925781 1119.660156 552.476562 1123.960938 548.785156 1128.980469 C 563.464844 1122.421875 575.253906 1114.53125 589.171875 1106.980469 C 581.457031 1121.5 572.128906 1133.898438 564.761719 1148.839844 C 578.757812 1135.601562 586.285156 1124.210938 603.542969 1114.109375 C 591.042969 1139.621094 568.21875 1159.628906 551.675781 1182.96875 C 545.730469 1192.03125 518.460938 1229.878906 517.503906 1236.890625 L 517.484375 1237.789062 C 520.558594 1237.828125 538.355469 1210.519531 543.59375 1204.429688 C 553.90625 1192.421875 610.917969 1124.96875 620.328125 1123.371094 C 630.902344 1121.570312 660.152344 1141.441406 669.683594 1147.769531 L 672.640625 1149.730469 C 687.160156 1159.191406 700.835938 1157.949219 709.570312 1163.949219 C 724.289062 1174.070312 708.894531 1185.53125 720.179688 1186.691406 C 728.710938 1187.558594 731.277344 1189.808594 729.527344 1199.359375 C 726.121094 1214.671875 712.421875 1236.011719 730.238281 1208.78125 C 732.097656 1205.941406 733.941406 1203.101562 735.855469 1200.300781 C 737.972656 1197.359375 759.171875 1167.160156 763.300781 1178.339844 C 765.910156 1185.421875 752.578125 1207.050781 748.609375 1213.71875 C 759.121094 1200.75 762.371094 1195.460938 777.847656 1187.761719 C 780.933594 1206.960938 779.265625 1194.921875 794.117188 1190.699219 C 805.292969 1187.53125 792.742188 1202.25 807.898438 1191.949219 C 829.980469 1176.941406 823.441406 1180.25 825.183594 1198.839844 C 845.179688 1186.210938 836.414062 1187.078125 861.625 1180.851562 C 867.558594 1179.378906 876.359375 1173.21875 880.472656 1177.910156 C 884.371094 1182.339844 884.289062 1184.089844 892.085938 1180.839844 C 896.796875 1178.871094 906.21875 1171.46875 907.921875 1178.261719 C 909.59375 1184.941406 920.304688 1171.679688 922.210938 1169.539062 C 930.121094 1160.691406 937.3125 1152.210938 948.03125 1146.570312 C 954.785156 1143.019531 928.351562 1175.601562 925.714844 1178.488281 C 897.238281 1208.589844 863.511719 1232.878906 831.082031 1258.441406 C 798.847656 1283.730469 810.9375 1274.058594 799.605469 1262.800781 C 791.554688 1254.789062 770.585938 1261.429688 761.78125 1263.988281 C 724.222656 1274.941406 697.652344 1293.710938 663.054688 1308.101562 C 653.90625 1311.910156 645.410156 1314.699219 652.109375 1299.808594 C 660.953125 1280.140625 666.703125 1275.109375 639.492188 1283.828125 C 604.214844 1295.128906 567.75 1313.269531 537.433594 1334.558594 Z M 1220.089844 1075.46875 C 1224.128906 1083.378906 1226.328125 1088.390625 1228.921875 1096.890625 C 1218.378906 1095.371094 1225.761719 1099.28125 1231.191406 1104.371094 C 1239.011719 1111.699219 1242.21875 1115.078125 1247.410156 1124.550781 C 1194.488281 1091 1194.871094 1073.320312 1166.769531 1022.691406 C 1150.179688 992.808594 1122.421875 965.570312 1085.511719 971.859375 C 1037.109375 981.980469 1024.179688 1012.390625 1006.550781 1054.160156 L 1005.261719 1057.230469 C 989.847656 1092.859375 981.699219 1105.640625 948.398438 1126.75 C 957.855469 1109.359375 967.546875 1092.191406 976.753906 1074.648438 C 999.167969 1028.359375 1009.539062 982.628906 1054.910156 951.578125 C 1092.261719 926.019531 1140.769531 951.039062 1167.511719 980.390625 C 1190.449219 1007.140625 1204.070312 1044.160156 1220.089844 1075.46875 Z M 1492.480469 974.378906 C 1428.640625 1022.238281 1334.398438 1022.46875 1289.628906 949.570312 C 1281.070312 935.628906 1264.839844 890.648438 1274.140625 876.378906 C 1276.640625 872.539062 1281.058594 872.300781 1283.269531 877.488281 C 1297.769531 911.398438 1300.789062 926.648438 1335.699219 945.378906 C 1340.460938 947.929688 1345.460938 950.179688 1350.511719 952.050781 C 1388.589844 966.128906 1423.648438 956.53125 1452.648438 928.578125 C 1468.621094 913.199219 1475.929688 899.390625 1482.738281 878.601562 C 1510.878906 879.421875 1509.25 884.769531 1539.890625 877.121094 C 1538.25 919.53125 1523.25 945.988281 1492.480469 974.378906 Z M 1059.050781 854.5 C 1062.621094 852.050781 1066.289062 858.300781 1067.839844 860.761719 C 1076.019531 873.75 1076 891.328125 1060.828125 898.921875 C 1049.898438 904.378906 1053.859375 894.289062 1054.460938 887.769531 C 1055.03125 881.578125 1055.808594 859.550781 1058.441406 855.359375 Z M 1116.429688 862.289062 C 1121.230469 863.601562 1120.929688 868.710938 1121.269531 873.070312 C 1122.078125 883.460938 1123.539062 895.871094 1108.46875 890.738281 C 1097.71875 887.089844 1100.019531 878.300781 1103.289062 869.820312 C 1106.050781 862.679688 1109.109375 861.980469 1116.429688 862.289062 Z M 806.25 953.890625 C 846.421875 963.738281 882.121094 953.609375 907.664062 920.101562 C 917.503906 907.191406 922.375 885.800781 928.769531 877.679688 C 933.53125 874.351562 934.808594 879.070312 936.386719 883.871094 C 944.320312 911.191406 930 937.148438 913.472656 958.320312 C 906.988281 966.621094 900.617188 973.070312 892.578125 979.859375 C 831.140625 1027.140625 738.953125 1013.789062 697.234375 947.171875 C 690.765625 936.839844 665.503906 885.210938 677.574219 876.199219 C 681.722656 873.101562 700.429688 879.160156 707.832031 879.691406 C 718.660156 880.480469 731.3125 876.769531 734.574219 888.269531 C 739.496094 905.609375 743.835938 915.070312 757.28125 927.621094 C 770.929688 940.359375 787.304688 948.21875 805.03125 953.53125 Z M 1098.371094 873.699219 C 1098.410156 878.550781 1097.480469 884.269531 1093.199219 887.308594 C 1086.359375 892.160156 1087.828125 874.511719 1088.160156 872.050781 C 1089.839844 859.191406 1096.410156 857.621094 1098.210938 871.601562 Z M 1156.039062 922.03125 C 1128.320312 890.050781 1135.378906 877.261719 1149.140625 840.511719 C 1151.710938 833.621094 1154.449219 826.921875 1157.359375 820.171875 C 1158.191406 853.570312 1151.378906 879.308594 1155.851562 913.960938 C 1156.230469 916.929688 1156.730469 919.859375 1157.210938 922.808594 Z M 1038.371094 817.371094 C 1042.511719 827.441406 1043.828125 871.640625 1042.738281 884.320312 C 1041.609375 897.640625 1038.558594 907.5 1031.988281 919.148438 C 1033.210938 897.648438 1038.5 877.820312 1038.269531 856.011719 C 1038.199219 852.058594 1037.449219 818.390625 1038.230469 817.289062 Z M 702.269531 817.96875 C 725.855469 781.851562 785.738281 774.800781 767.878906 826.191406 C 749.964844 877.71875 671.949219 873.640625 702.269531 817.96875 Z M 1524.609375 806.769531 C 1533.710938 823.800781 1535.269531 847.269531 1517.078125 859.300781 C 1482.429688 882.210938 1409.878906 779.800781 1470.800781 774.140625 C 1490.269531 772.328125 1513.398438 788.761719 1523.238281 804.578125 Z M 1894.550781 1028.871094 C 1872.199219 1026.410156 1829.410156 1017.730469 1807.519531 1011.019531 C 1766.550781 993.5 1788.289062 1003.660156 1809.339844 1023.851562 C 1822.730469 1036.691406 1835.699219 1050.011719 1848.839844 1063.101562 C 1877.851562 1094.21875 1875.519531 1093.058594 1899.921875 1123.730469 C 1903.429688 1128.140625 1903.890625 1128.191406 1905.988281 1133.769531 L 1882.839844 1130.070312 C 1858.621094 1127.011719 1840.648438 1123.941406 1820.539062 1108.808594 C 1809.730469 1100.679688 1816.210938 1112.351562 1818.789062 1117.578125 C 1822.96875 1126.03125 1827.628906 1133.988281 1831.449219 1142.699219 C 1835.71875 1152.429688 1837.988281 1160.480469 1839.578125 1171 C 1834.210938 1166.121094 1830.359375 1156.808594 1826.578125 1149.519531 C 1822.179688 1142.640625 1817.519531 1136.308594 1812.800781 1129.671875 C 1819.710938 1143.25 1824.980469 1153.28125 1829.75 1167.960938 C 1841.488281 1214.019531 1850.308594 1233.289062 1875.578125 1273.300781 C 1887.589844 1292.320312 1872.78125 1276.339844 1862.800781 1271.441406 C 1860.871094 1274.550781 1884.890625 1292.78125 1832.839844 1272.210938 C 1796.089844 1257.679688 1796.941406 1245.679688 1769.441406 1224.261719 L 1767.179688 1222.5 C 1760.160156 1217.03125 1772.539062 1234.210938 1773.199219 1235.25 C 1787.019531 1257.328125 1790.449219 1262.441406 1809.839844 1280.179688 C 1813.910156 1283.910156 1814.238281 1285.261719 1813.761719 1290.660156 C 1791.769531 1289.851562 1774.761719 1284.921875 1753.578125 1280.628906 C 1741.21875 1278.128906 1746.160156 1280.808594 1751.910156 1293.851562 C 1753.558594 1297.589844 1767.929688 1327.050781 1766.921875 1328.019531 C 1762.898438 1331.890625 1701.449219 1305.03125 1693.851562 1301.179688 C 1666.160156 1287.140625 1645.230469 1271.160156 1623.941406 1248.660156 C 1601.679688 1225.121094 1625.539062 1262.96875 1629.101562 1268.101562 C 1634.230469 1275.46875 1647.628906 1291.480469 1644.800781 1300.53125 C 1618.351562 1283.589844 1625.878906 1278.191406 1634.570312 1315.050781 C 1641.601562 1344.898438 1626.949219 1319.148438 1620.089844 1312.589844 C 1616.191406 1313.75 1628.929688 1331.871094 1613.480469 1319.671875 C 1609.78125 1316.738281 1605.949219 1313.96875 1602.25 1311.03125 C 1585 1297.359375 1506.28125 1246.238281 1486.949219 1258.921875 L 1485.648438 1259.910156 C 1481.628906 1262.960938 1485.371094 1265.121094 1474.699219 1265.199219 C 1467.578125 1265.25 1450.128906 1260.949219 1447.710938 1268.96875 L 1447.351562 1271.75 C 1446.28125 1280.109375 1448.46875 1281.828125 1436.148438 1278.359375 C 1430.839844 1276.871094 1425.269531 1274.960938 1420.039062 1273.121094 C 1361.730469 1252.648438 1270.558594 1212.300781 1252.769531 1147.738281 L 1251.96875 1144.828125 C 1264.960938 1151.738281 1273.871094 1160.929688 1285.121094 1166.929688 C 1302.910156 1176.429688 1289.558594 1152.691406 1323.289062 1193.300781 C 1333.46875 1205.558594 1322.671875 1192.511719 1324.910156 1177.03125 C 1342.511719 1180.328125 1346.261719 1190.511719 1358.511719 1202.101562 C 1331.601562 1153.96875 1364.488281 1191.921875 1379.960938 1204.800781 C 1379.25 1199.359375 1363.628906 1173.398438 1379.71875 1183.050781 C 1387.460938 1187.691406 1389.839844 1194.671875 1398.238281 1195.53125 C 1398.160156 1184.289062 1394.890625 1170.058594 1410.890625 1188.019531 C 1418.371094 1196.410156 1425.21875 1208.808594 1433.390625 1215.96875 C 1426.929688 1202.210938 1421.558594 1198.679688 1421.578125 1182.570312 C 1434.160156 1178.960938 1432.550781 1181.050781 1441.289062 1191.980469 C 1449.839844 1202.699219 1456.738281 1212.289062 1466.648438 1221.980469 C 1457.320312 1210.261719 1452.820312 1205.609375 1448.449219 1190.769531 C 1457.601562 1198.660156 1464.070312 1206.671875 1472.21875 1215.351562 C 1470.730469 1213.171875 1438.46875 1167.488281 1456.960938 1176.929688 C 1470.550781 1183.871094 1476.769531 1205.46875 1471.011719 1182.660156 C 1466.519531 1164.871094 1473.160156 1169.878906 1489.78125 1165.808594 C 1506.140625 1161.789062 1509.359375 1159.820312 1519.441406 1176.191406 C 1520.03125 1177.140625 1535.851562 1208.78125 1529.789062 1189.421875 C 1523.578125 1169.550781 1506.859375 1150.980469 1539.289062 1183.640625 C 1554.640625 1199.101562 1636.550781 1280.929688 1571.558594 1205.988281 C 1559.351562 1191.910156 1544.769531 1175.609375 1543.308594 1156.191406 C 1551.539062 1161.96875 1565.949219 1180.160156 1555.28125 1161.738281 C 1548.089844 1149.320312 1547.71875 1142.261719 1562.441406 1137.609375 C 1566.570312 1136.308594 1568.871094 1136.039062 1572.789062 1137.671875 C 1581.679688 1141.351562 1580.289062 1143.738281 1579.128906 1135.308594 C 1578.078125 1127.691406 1583.238281 1126.519531 1590.621094 1126.328125 C 1607.828125 1125.890625 1619.808594 1136.730469 1633.640625 1145.761719 C 1631.671875 1138.238281 1630.699219 1140.46875 1627.871094 1134.191406 C 1652.75 1138.449219 1608.960938 1118.109375 1612.910156 1107.539062 C 1615.601562 1100.320312 1627.238281 1094.808594 1634.371094 1099.5 C 1649.761719 1109.648438 1675.199219 1135.429688 1690.070312 1148.789062 L 1693.429688 1151.808594 C 1702.679688 1160.109375 1711.070312 1166.648438 1721.179688 1173.800781 C 1705.960938 1154.039062 1681.609375 1132.589844 1670.648438 1111.410156 C 1688.679688 1117.519531 1704.378906 1131.261719 1719.871094 1142.101562 C 1711.921875 1135.199219 1653.71875 1088.671875 1657.011719 1081.710938 C 1659.75 1075.929688 1676.28125 1076.398438 1680.570312 1074.191406 C 1678.820312 1069.269531 1675.140625 1067.519531 1686.910156 1070.308594 C 1699.320312 1073.261719 1810.949219 1108.589844 1734.921875 1074.710938 C 1727.988281 1071.621094 1681.449219 1053.03125 1680.308594 1049.378906 C 1677.75 1041.230469 1733.910156 1054.558594 1741.351562 1056.960938 C 1752.070312 1060.410156 1762.660156 1064.609375 1773.230469 1068.550781 C 1745.828125 1050.648438 1721.808594 1048.339844 1694.128906 1026.910156 C 1705.820312 1028.890625 1711.519531 1030.769531 1722.488281 1035.019531 C 1708.671875 1027.429688 1693.101562 1018.578125 1708.328125 1003.53125 C 1720.371094 991.648438 1730.460938 997.820312 1715.039062 978.441406 C 1706.851562 968.148438 1709.28125 957.328125 1712.820312 945.558594 C 1720.25 920.898438 1727.730469 928.890625 1748.921875 935.859375 C 1764.660156 941.03125 1773.800781 942.839844 1790.460938 942.871094 C 1769.511719 939.578125 1720.871094 928.78125 1719.769531 900.359375 C 1719.300781 888.21875 1719.25 887.359375 1717.730469 874.308594 C 1714.53125 846.730469 1709.769531 828.410156 1698.179688 803.128906 C 1691.300781 788.121094 1697.050781 789.089844 1711.328125 788.96875 C 1776.429688 788.429688 1782.410156 793.539062 1831.558594 836.269531 C 1832.851562 837.398438 1869.550781 868.128906 1854.5 866.011719 C 1842.828125 864.371094 1834.179688 857.570312 1818.839844 856.628906 C 1819.96875 863.988281 1835.300781 875.601562 1841.371094 882.710938 C 1866.871094 912.601562 1873.929688 952.019531 1883.820312 988.890625 C 1887.390625 1002.21875 1890.96875 1015.550781 1894.550781 1028.871094 Z M 337.429688 1025.808594 C 333.757812 1026.238281 331.945312 1026.269531 328.4375 1025.039062 C 327.6875 1007.539062 340.421875 967.070312 345.640625 948.109375 C 356.5625 908.410156 366.863281 893.679688 397.078125 866.109375 C 402.511719 861.148438 405.441406 857.660156 409.671875 851.679688 C 393.269531 856.699219 374.480469 864.191406 358.492188 868.078125 C 369.535156 849.691406 398.410156 825.660156 414.871094 809.710938 C 438.175781 787.128906 453.628906 788.988281 484.285156 786.96875 C 490.101562 786.589844 531.867188 783.550781 530.546875 793.398438 C 530.191406 796.03125 521.886719 806.511719 519.964844 811.109375 L 517.234375 817.640625 C 505.65625 848 508.90625 865.839844 483.273438 891.101562 C 473.980469 899.878906 460.699219 909.890625 452.566406 918.640625 C 462.835938 914.371094 487.332031 899.519531 494.417969 897.800781 C 493.765625 901.589844 452.09375 927.351562 476.5 914.941406 C 482.816406 911.730469 505.53125 901.128906 497.796875 918.871094 C 493.710938 928.25 481.820312 932.910156 473.304688 937.429688 C 480.03125 935.671875 499.925781 923.519531 495.980469 939.808594 C 494.699219 945.101562 476.101562 950.078125 486.621094 950.25 C 502.496094 950.511719 481.722656 956 494.429688 957.671875 C 498.050781 958.140625 498.679688 958.261719 501.519531 960.539062 C 510.625 971.378906 448.382812 994.609375 441.480469 997.378906 L 439.726562 998.089844 C 432.375 1001.089844 424.96875 1004.058594 417.5 1006.75 C 390.726562 1016.199219 365.519531 1021.878906 337.429688 1025.808594 Z M 1327.28125 1054.921875 C 1293.5 1036.980469 1262.421875 1008.929688 1246.75 973.398438 C 1222.148438 916.421875 1231.488281 872.980469 1252.699219 817.160156 C 1258.488281 802.03125 1255.570312 821.429688 1254.328125 825.738281 C 1248.398438 846.410156 1246.308594 853.648438 1247.070312 875.699219 C 1248.050781 904.441406 1255.050781 934.839844 1269.640625 959.738281 C 1280.308594 977.929688 1295.769531 992.878906 1311.820312 1006.371094 L 1314.570312 1008.691406 C 1334.949219 1025.828125 1366.75 1033.671875 1393 1035.71875 C 1436.550781 1036.769531 1493.371094 1024.230469 1522.769531 989.691406 C 1550.53125 957.070312 1562.730469 944.890625 1570.75 900.320312 C 1575.789062 872.339844 1575.460938 845.039062 1566.160156 818.140625 C 1541.621094 747.171875 1465.179688 695.460938 1389.140625 711.03125 C 1369.960938 714.960938 1354.429688 721.421875 1336.441406 728.558594 C 1322.96875 733.898438 1350.621094 717.371094 1352 716.679688 C 1387.53125 698.699219 1431.039062 694.410156 1469.199219 705.601562 C 1496.320312 713.558594 1521.03125 727.179688 1540.238281 748.039062 C 1613.621094 827.730469 1623.53125 923.730469 1557.96875 1012.050781 C 1552.589844 1019.308594 1547.269531 1025.160156 1540.589844 1031.238281 C 1538.238281 1033.390625 1535.800781 1035.421875 1533.328125 1037.429688 C 1475.710938 1084.199219 1391.949219 1089.269531 1327.28125 1054.921875 Z M 916.609375 1030.328125 C 871.777344 1071.460938 809.0625 1087.589844 750.324219 1070.660156 C 705.023438 1057.601562 672.777344 1033.699219 645.304688 995.621094 C 598.855469 924.71875 606.976562 843.75 651.101562 774.039062 C 682.910156 727.210938 747.496094 697.148438 803.679688 699.878906 C 832.675781 701.660156 857.027344 711.621094 879.652344 729.679688 C 892.839844 741.148438 873.210938 726.511719 868.972656 724.199219 C 848.585938 713.058594 823.191406 708.050781 800.097656 707.929688 C 745.292969 711.929688 703.519531 731.089844 669.605469 775.128906 C 649.734375 802.050781 635.71875 846.78125 637.925781 880.519531 C 639.050781 897.648438 643.136719 912.660156 649.089844 928.671875 C 674.617188 991.46875 730.953125 1031.929688 798.828125 1035.929688 C 883.1875 1036.550781 945.863281 986.769531 960.757812 903.160156 C 965.175781 876.808594 960.628906 852.539062 957.121094 826.519531 C 954.820312 807.96875 968.957031 843.988281 969.515625 845.839844 C 982.648438 898.75 980.425781 952.53125 947.109375 997.75 C 937.90625 1009.558594 927.367188 1019.96875 916.609375 1030.328125 Z M 927.285156 700.558594 C 978.398438 743.480469 1017.828125 808.179688 1016.941406 876.550781 C 1016.789062 888.53125 1011.539062 863.898438 1011.261719 862.71875 C 1007.738281 851.339844 1004.609375 843.859375 998.632812 833.511719 C 997.636719 868.371094 1005.289062 897.019531 1001.910156 933.238281 C 998.796875 966.578125 994.523438 984.859375 981.753906 1015.898438 C 979.449219 1021.300781 977.042969 1026.46875 974.453125 1031.738281 C 944.734375 1088.53125 924.507812 1103.699219 865.246094 1128.820312 C 758.265625 1169.269531 698.234375 1142 608.972656 1079.96875 C 531.058594 1025.828125 491.90625 955.011719 511.203125 859.269531 C 513.867188 847.03125 517.289062 835.621094 521.378906 823.800781 C 528.359375 804.011719 519.378906 840.359375 518.808594 843.46875 C 503.976562 924.640625 507.699219 978.179688 570.890625 1037.160156 C 593.222656 1056.078125 576.644531 1040.128906 567.535156 1029.261719 C 535.902344 991.539062 520.957031 960.550781 516.613281 911.050781 C 515.429688 896.320312 523.070312 937.980469 523.4375 939.390625 C 540.085938 997.820312 576.898438 1046.488281 634.527344 1069.371094 C 640.394531 1071.691406 650.140625 1075.839844 656.007812 1072.03125 C 654.476562 1069.359375 622.121094 1044.71875 615.132812 1038.371094 C 559.746094 988.058594 535.316406 933.019531 547.355469 857.941406 C 551.886719 833.671875 560.488281 812.949219 572.023438 791.261719 C 574.726562 786.320312 578.835938 786.050781 584.777344 783.789062 C 590.9375 781.441406 597.066406 779.628906 603.3125 777.539062 C 634.691406 767.039062 638.761719 759.601562 666.300781 744.898438 C 653.730469 762.269531 646.566406 770.011719 634.410156 787.621094 L 632.546875 790.320312 C 612.105469 821.941406 605.21875 854.648438 604.128906 891.808594 L 604.019531 898.53125 C 608.429688 995.949219 677.667969 1075.089844 775.242188 1087.410156 C 899.945312 1094.378906 1004.261719 1004.148438 988.285156 875.378906 C 984.035156 841.140625 971.253906 812.03125 952.164062 783.578125 C 920.0625 739.640625 872.15625 707.621094 821.761719 688.308594 C 814.917969 685.730469 824.480469 686.328125 828.203125 686.058594 C 856.117188 684.238281 876.714844 684.679688 831.121094 678.300781 C 789.394531 673.441406 751.050781 675.351562 710.089844 684.949219 C 680.671875 691.839844 616.8125 736.289062 586.550781 753.320312 C 579.46875 757.21875 563.011719 764.429688 583.503906 756.71875 C 615.039062 743.761719 669.503906 700.179688 698.6875 700.390625 C 696.375 714.699219 620.425781 756.601562 604.492188 764.398438 C 558.78125 782.75 546.066406 780.808594 502.304688 759.75 C 482.496094 750.21875 498.429688 751.351562 511.160156 748.808594 C 582.824219 732.050781 609.785156 685.539062 673.535156 656.101562 C 771.492188 613.640625 845.882812 638.789062 927.285156 700.558594 Z M 1307.820312 1057.671875 C 1325.640625 1069.640625 1343.699219 1076.570312 1364.191406 1082.441406 L 1367.191406 1083.300781 C 1399.730469 1091.070312 1423.441406 1092.621094 1457.371094 1085.621094 C 1587.011719 1050.21875 1643 937.828125 1594.5 814.019531 L 1593.398438 811.230469 C 1586.621094 793.929688 1577.628906 778.960938 1566.648438 764.011719 C 1533.148438 718.371094 1476.179688 689.03125 1419.480469 688.160156 C 1411.050781 688.019531 1393.101562 689.160156 1386.179688 688.078125 C 1385.269531 683.710938 1403.03125 677.808594 1406.578125 677.109375 C 1440.121094 670.539062 1488.371094 691.46875 1516.601562 708.921875 C 1555.230469 732.820312 1590.238281 757.980469 1631.078125 778.730469 C 1654.46875 790.609375 1651.050781 794.710938 1659.148438 818.828125 C 1689.75 909.839844 1672.488281 988.710938 1596.359375 1050.761719 C 1587.570312 1057.921875 1580.640625 1063.378906 1573.710938 1072.519531 C 1640.679688 1050.078125 1653.050781 1022.46875 1685.390625 964.269531 C 1705.691406 927.75 1686.070312 971.949219 1680.410156 982.46875 C 1675.171875 992.210938 1659.609375 1018.691406 1656.601562 1027.429688 C 1665.640625 1017.601562 1690.300781 976.941406 1696.621094 962.011719 C 1710.640625 928.910156 1711.320312 899.320312 1707.019531 864.371094 L 1706.589844 860.878906 C 1703.5 835.75 1701.121094 800.621094 1708 853.089844 C 1725.539062 986.820312 1684.289062 1040.160156 1569.128906 1102.398438 C 1481.761719 1149.621094 1413.039062 1160.949219 1319.410156 1119.410156 C 1297.289062 1109.601562 1270.839844 1093.109375 1253.261719 1076.480469 C 1234.878906 1059.101562 1223.78125 1035.980469 1213.269531 1013.28125 C 1192.550781 968.238281 1187.058594 930.898438 1185.640625 881.839844 L 1185.550781 878.519531 C 1183.320312 798.820312 1213.730469 750.371094 1271.820312 697.851562 C 1322.960938 651.609375 1388.351562 630.488281 1457.171875 636.410156 C 1526.808594 642.390625 1576.308594 682.988281 1631.859375 720.539062 C 1666.671875 744.070312 1681.660156 748.761719 1723.128906 754.03125 C 1695.890625 778.019531 1662.539062 785.339844 1630.199219 767.171875 C 1607.078125 754.179688 1585.660156 732.101562 1563.929688 716.078125 C 1525.949219 688.058594 1481.050781 660.648438 1431.878906 669.25 C 1402.851562 674.339844 1461.511719 653.390625 1442.398438 655.53125 C 1424.179688 657.570312 1395.460938 668.128906 1376.359375 672.851562 C 1366.578125 675.269531 1401.089844 663.398438 1402.25 663.050781 C 1428 655.371094 1450.488281 649.699219 1403.339844 656.539062 C 1367.921875 661.671875 1333.820312 690.601562 1311.21875 716.898438 C 1297.449219 732.910156 1282.441406 747.71875 1269.308594 764.269531 L 1267.371094 766.710938 C 1252.550781 785.410156 1242.789062 802.421875 1233.96875 824.621094 C 1232.941406 827.199219 1232.070312 829.679688 1231.21875 832.320312 C 1221.03125 864.71875 1218.621094 901.25 1212.890625 934.921875 C 1210.011719 951.820312 1215.558594 932.210938 1217.398438 927.828125 C 1222.011719 916.890625 1222.511719 922.460938 1224.78125 930.679688 C 1240.429688 987.320312 1258.011719 1023.75 1307.820312 1057.671875 Z M 721.945312 605.179688 C 696.097656 623.550781 648.640625 598.910156 621.671875 591.019531 C 612.078125 588.710938 622.324219 593.339844 624.964844 594.78125 C 631.796875 598.921875 645.59375 605.621094 653.109375 608.410156 C 668.089844 613.621094 678.179688 616.738281 694.230469 618.808594 C 644.414062 621.289062 644.914062 607.898438 604.710938 590.128906 C 583.671875 580.828125 627.53125 606.691406 628.355469 607.179688 C 639.953125 613.78125 651.125 618.808594 663.511719 623.730469 C 667.660156 625.351562 670.792969 626.601562 674.585938 629 C 660.011719 641.828125 645.914062 633.839844 631.378906 625.210938 C 619.148438 617.398438 609.152344 609.921875 597.476562 601.609375 C 585.199219 592.871094 610.300781 615.429688 612.171875 616.828125 C 626.335938 627.078125 639.675781 633.550781 655.402344 640.871094 C 602.839844 648.730469 585.382812 608.988281 545.070312 585.75 C 525.285156 574.769531 597.640625 630.378906 599.5625 631.949219 C 605.503906 637.179688 609.261719 641.261719 613.753906 647.769531 C 592.664062 654.488281 552.90625 623.539062 547.191406 625.839844 C 558.636719 640.429688 602.652344 654.75 612.488281 665.621094 C 605.402344 669.75 552.539062 644.179688 538.3125 644.53125 C 545.613281 656.160156 588.808594 672.699219 603.058594 679.628906 C 602.003906 681.089844 594.6875 681.550781 591.253906 683.058594 C 569.851562 688.25 566.855469 681.359375 550.4375 683.589844 C 559.617188 690.238281 564.773438 690.898438 574.375 699.308594 C 563.894531 707.558594 564.476562 706.03125 551.753906 707.691406 C 554.027344 712.371094 559.523438 715.699219 546.148438 713.480469 C 530.488281 710.871094 524.910156 707.019531 542.621094 716.050781 C 551.304688 720.46875 547.832031 720.78125 540.164062 724.808594 C 514.582031 737.699219 499.933594 735.46875 475.546875 742.75 C 466.691406 745.398438 474.652344 751.671875 479.230469 756.871094 C 483.835938 762.101562 498.039062 772.289062 499.144531 776.320312 C 496.011719 779.238281 481.863281 777.300781 477.023438 777.230469 C 444.222656 776.75 406.0625 777.539062 374.558594 768.179688 C 377.917969 763.96875 387.34375 758.511719 392.476562 754.089844 C 413.632812 735.859375 430.976562 714.390625 452.738281 696.378906 C 475.90625 680.109375 483.003906 680.300781 510.179688 681.941406 C 530.339844 683.148438 519.527344 679.371094 508.914062 672.890625 C 483.199219 655.28125 462.4375 629.378906 435.785156 610.378906 C 430.285156 606.539062 428.878906 606.710938 438.628906 605.53125 C 474.058594 601.511719 481.214844 601.640625 513.363281 617.628906 C 519.28125 620.578125 529.664062 625.011719 535.335938 619.5 C 538.539062 616.378906 536.464844 613.070312 534.964844 608.730469 C 532.101562 600.421875 528.570312 592.339844 525.484375 584.128906 C 522.734375 576.148438 520.839844 568.828125 519.058594 560.589844 C 557.492188 570.78125 587.800781 582.820312 628.199219 587.699219 C 629.996094 587.898438 631.796875 588.109375 633.597656 588.308594 C 657.214844 590.910156 701.78125 593.828125 721.945312 605.179688 Z M 1783.238281 711.058594 C 1793.039062 721.351562 1811.421875 742.101562 1823.398438 751.699219 C 1831.171875 757.820312 1838.078125 762.320312 1846.441406 767.550781 C 1810.878906 773.640625 1747.488281 785.121094 1713.238281 779.460938 C 1720.359375 774.039062 1755.351562 753.089844 1737.691406 743.679688 C 1725.300781 737.078125 1703.460938 738.441406 1690.910156 732.289062 C 1688.859375 731.28125 1689.511719 731.46875 1692.640625 728.628906 C 1697.558594 724.171875 1714.691406 714.078125 1697.691406 720.230469 C 1669.109375 730.558594 1668.03125 720.128906 1646.851562 708.050781 L 1643.828125 706.320312 C 1631.308594 699.179688 1631.171875 701.621094 1649.160156 693.230469 C 1671.570312 682.78125 1683.980469 679.328125 1702.339844 661.351562 C 1710.03125 653.828125 1698.179688 663.871094 1696.011719 665.398438 C 1675.191406 680.058594 1650.378906 692.78125 1624.421875 687.808594 C 1611.351562 685.308594 1629.859375 679.609375 1634.179688 677.921875 C 1650.78125 671.410156 1668.851562 665.699219 1681.621094 652.671875 C 1668.699219 652.179688 1629.628906 671.71875 1607.53125 671.851562 C 1600.371094 671.890625 1595.890625 671.558594 1590.398438 667.109375 C 1583.578125 661.578125 1602.089844 653.988281 1579.539062 653.101562 C 1563.980469 652.480469 1576.25 650.640625 1585 648.238281 C 1598.300781 644.589844 1615.050781 641.269531 1624.660156 630.710938 C 1610.570312 633.820312 1598.410156 638.359375 1585.191406 641.480469 C 1566.28125 645.941406 1532.300781 641.261719 1515.078125 632.371094 C 1527.859375 622.710938 1543.261719 619.128906 1554.589844 610.121094 C 1535.769531 612.988281 1517.820312 623.558594 1499.511719 616.320312 C 1512.480469 611.171875 1538.648438 607.160156 1548.148438 599.109375 C 1517.621094 603.128906 1506.03125 614.738281 1471.890625 608.289062 C 1462.839844 606.578125 1475.128906 606.320312 1479.539062 605.328125 C 1503.671875 599.898438 1513.980469 595.261719 1540.230469 593.460938 C 1567.671875 591.578125 1587.398438 589.71875 1614.078125 581.859375 C 1622.828125 579.28125 1631.410156 576.378906 1640.179688 573.859375 L 1695.628906 559.449219 C 1701.488281 556.710938 1698.328125 557.589844 1704.308594 557.910156 C 1698.488281 574.929688 1688.871094 588.878906 1683.890625 604.539062 C 1679.058594 619.738281 1682.371094 632.398438 1700.820312 625.101562 C 1714.558594 619.660156 1717.671875 616.039062 1733.128906 611.960938 C 1749.570312 607.621094 1767.5 604.820312 1784.511719 605.609375 C 1791 605.910156 1786.921875 606.699219 1783.320312 609.769531 C 1769.160156 621.859375 1758.390625 630.070312 1744.871094 643.601562 C 1732.179688 656.289062 1721.859375 663.511719 1708.539062 674.660156 C 1706.660156 676.25 1705.941406 677.199219 1706.371094 679.671875 C 1748.441406 679.050781 1748.261719 678.441406 1779.160156 707.261719 Z M 1425.25 548.558594 C 1401.050781 576.589844 1358.75 617.570312 1321.390625 624.210938 C 1347.019531 609.289062 1376.199219 581.261719 1384.488281 552.101562 C 1364.988281 580.671875 1339.160156 607.210938 1304.898438 617.050781 C 1301.320312 618.078125 1298.410156 618.511719 1294.71875 618.839844 C 1300.96875 601.441406 1309.089844 586.789062 1315.28125 568.429688 C 1319.230469 556.71875 1322.648438 545.550781 1324.371094 533.269531 C 1307.671875 558.769531 1293.339844 597.078125 1279.328125 625.699219 C 1272.421875 639.820312 1254.730469 675.160156 1242.660156 683.890625 C 1235.921875 688.769531 1239.699219 680.539062 1240.769531 676.03125 C 1244.398438 660.699219 1251.480469 638.71875 1253.46875 624.199219 C 1253.171875 624.449219 1234.550781 671.46875 1231.859375 676.949219 C 1220.601562 699.890625 1207.839844 711.820312 1185.660156 724.328125 C 1189.550781 718.03125 1214.460938 679.730469 1210.421875 675.03125 C 1208.71875 673.039062 1203.101562 683.03125 1202.140625 684.488281 C 1193.96875 696.878906 1180.910156 717.089844 1170 726.28125 C 1173.839844 713.058594 1190.238281 688.898438 1186.808594 677.609375 C 1176.800781 688.71875 1168.53125 704 1158.148438 716.578125 C 1147.75 729.179688 1125.671875 756 1106.988281 749.300781 L 1104.949219 748.121094 C 1088.421875 738.660156 1061.601562 692.210938 1050.988281 674.371094 C 1046.96875 667.601562 1043.238281 660.710938 1046.640625 675.308594 C 1052.261719 699.390625 1071.660156 722.261719 1082.089844 743.671875 C 1082.828125 745.171875 1083.210938 745.859375 1083.558594 747.460938 C 1084.191406 750.390625 1073.679688 746.25 1072 745.761719 C 1038.058594 735.910156 1009.550781 720.980469 984.378906 695.789062 C 980.582031 691.988281 977.699219 689.25 973.363281 686.019531 C 973.570312 693.511719 973.789062 701 974.003906 708.488281 C 965.96875 699.269531 953.3125 691.679688 943.570312 681.261719 C 928.722656 664.128906 920.132812 648.851562 907.953125 630.25 C 888.253906 600.28125 825.640625 489.238281 819.441406 483.828125 C 815.273438 525.761719 852.453125 589.199219 872.402344 625.828125 C 874.527344 629.730469 875.539062 631.910156 876.425781 636.320312 C 856.949219 626.078125 816.996094 590.371094 800.757812 573.851562 C 780.394531 552.671875 763.746094 529.550781 756.421875 500.710938 C 749.539062 469.171875 781.433594 490 745.898438 459.25 C 722.644531 439.28125 716.285156 432.328125 697.539062 407.960938 C 693.316406 402.460938 684.617188 390.699219 678.910156 387.289062 C 683.980469 403.378906 702.457031 429.421875 676.816406 394.089844 C 635.207031 336.761719 685.324219 416.191406 691.738281 426.539062 C 702.089844 443.289062 663.632812 403.929688 663.515625 403.800781 C 649.570312 388.199219 638.445312 370.171875 632.09375 350.171875 C 629.515625 342.039062 632.199219 345.320312 640.371094 348.320312 C 672.238281 360.210938 711.285156 381.429688 739.652344 400.328125 C 741.710938 401.699219 757.863281 414.121094 757.953125 414.128906 C 761.269531 414.46875 753.730469 397.78125 751.769531 395.160156 C 735.355469 373.191406 708.046875 361.371094 684.351562 349.28125 C 676.144531 345.089844 675.871094 346.308594 685.972656 343.398438 C 710.75 336.261719 721.246094 346.589844 744.785156 350.609375 C 773.378906 355.488281 787.175781 358.898438 813.855469 371.28125 C 831.386719 379.421875 878.578125 404.988281 891.484375 417.070312 C 874.757812 392.851562 842.722656 370.199219 818.507812 352.449219 C 784.03125 327.171875 757.394531 330.019531 717.511719 333.5 C 755.007812 319.328125 791.351562 330.140625 832.222656 315.25 C 860.261719 305.03125 884.359375 294.851562 913.6875 287.488281 C 1058.980469 252.578125 1236.859375 256.679688 1379.691406 300.871094 C 1406.941406 309.300781 1428.179688 319.390625 1456.910156 323.789062 C 1482.578125 327.71875 1509.679688 329.929688 1532.75 342.828125 C 1514.929688 355.800781 1463.621094 376.898438 1455.578125 393.988281 C 1449.179688 407.609375 1476.078125 391.710938 1478.800781 390.230469 C 1512.640625 371.878906 1535.949219 348.320312 1576.679688 345.789062 C 1572.269531 362.738281 1544.859375 405.21875 1529.191406 412.738281 C 1539.640625 393.28125 1540.78125 396.160156 1524.949219 408.460938 C 1509.949219 420.109375 1558.160156 366.910156 1558.308594 366.71875 C 1563.210938 360.328125 1528.78125 396.171875 1521.28125 403.53125 C 1500.308594 424.078125 1477.011719 443.078125 1456.601562 463.289062 C 1438 481.691406 1455.660156 478.21875 1452.230469 503.078125 C 1450.050781 518.859375 1435.671875 536.488281 1425.25 548.558594 Z M 1834.859375 335.390625 C 1837.121094 330.769531 1837.398438 329.679688 1837.398438 324.539062 C 1818.109375 357.820312 1787.960938 403.480469 1753.25 421.410156 C 1728.179688 434.359375 1701.480469 467.609375 1673.140625 484.421875 C 1663.308594 490.25 1671.5 484.359375 1674.96875 481.308594 C 1731.539062 431.621094 1761.660156 408.398438 1805.96875 344.660156 C 1810.910156 337.550781 1815.761719 330.378906 1820.5 323.140625 C 1844.988281 285.78125 1866.488281 246.738281 1887.070312 207.140625 C 1895.539062 190.851562 1902.359375 176.769531 1908.261719 159.269531 L 1901.671875 167.289062 C 1829.808594 298.351562 1758.898438 393.339844 1636.539062 481.941406 C 1609.78125 501.320312 1536.640625 541.21875 1505.328125 545.828125 C 1512.371094 542.671875 1575.351562 503.28125 1577.761719 496.199219 C 1578.820312 493.089844 1576.308594 495.140625 1572.929688 496.738281 C 1545.859375 509.570312 1521.160156 532.191406 1492.050781 545.351562 C 1486.371094 547.910156 1481.351562 549.710938 1475.398438 551.519531 C 1488.851562 537.800781 1508.828125 521.648438 1517.25 504.628906 C 1491.449219 522.460938 1469.449219 543.53125 1442.851562 560.460938 C 1459.960938 539.609375 1472.011719 518.238281 1473.949219 490.960938 C 1475.628906 467.5 1482.320312 466.761719 1502.589844 455.300781 C 1527.878906 441 1537.289062 435.628906 1555.75 412.308594 C 1569.171875 395.371094 1583.460938 382.878906 1596.289062 364.410156 C 1610.328125 344.210938 1614.140625 336.640625 1634 320.890625 C 1648.941406 309.050781 1666.53125 300.570312 1681.800781 289 C 1739.289062 245.410156 1752.199219 221.769531 1780.730469 157 C 1786.578125 143.71875 1789.859375 147.839844 1796.941406 158.589844 C 1819 192.089844 1802.398438 242.449219 1791.878906 277.519531 C 1789.199219 286.480469 1786.449219 295.429688 1783.851562 304.410156 C 1780.390625 316.339844 1802.871094 271.058594 1803.21875 270.28125 C 1817.570312 238.320312 1829.761719 211.988281 1825.679688 175.871094 C 1823.980469 160.769531 1826.929688 161.53125 1838.308594 152.648438 C 1885 116.230469 1899.359375 102.601562 1926.691406 49.148438 L 1928.359375 45.871094 C 1930.898438 40.921875 1932.578125 37.839844 1936.789062 34.121094 C 1958.71875 50.5 1956.660156 124.988281 1954.179688 150.121094 C 1947.230469 220.628906 1925.25 275.820312 1881.269531 331.410156 C 1875.609375 338.558594 1871.378906 344.308594 1867.351562 352.558594 C 1901.179688 338.859375 1932.480469 301.039062 1954.058594 272.351562 C 1972.359375 248.019531 1942.558594 308.640625 1940.859375 311.671875 C 1900.910156 383.019531 1853.078125 436.828125 1785.078125 482.460938 C 1758.929688 500.011719 1750.101562 507.871094 1719.511719 520.238281 C 1684.890625 534.238281 1643.238281 547.378906 1605.53125 543.890625 C 1600.851562 543.460938 1597.871094 543.039062 1593.679688 540.921875 C 1619.589844 526.25 1653.339844 517.71875 1680.398438 503.25 C 1755.988281 462.808594 1797.640625 411.378906 1834.859375 335.390625 Z M 387.496094 152.269531 C 398.074219 161.21875 404.976562 169.828125 396.386719 183.378906 C 392.097656 190.148438 392.328125 183.589844 386.171875 179.828125 C 385.621094 181.359375 393.433594 195.488281 394.636719 198.230469 C 403.386719 222.238281 411.636719 276.648438 428.03125 292.96875 C 425.3125 277.429688 420.457031 263.070312 417.636719 246.96875 C 412.136719 214.808594 407.460938 176.628906 434.488281 152.289062 C 445.503906 142.371094 446.253906 154.238281 450 164.199219 C 461.605469 195.070312 467.382812 210.140625 487.164062 237.328125 C 498.011719 251.699219 509.328125 265.960938 523.21875 277.519531 C 536.519531 288.589844 544.125 296.808594 559.238281 306.878906 C 574.21875 316.648438 605.878906 332.75 601.699219 354.519531 C 592.136719 350.769531 584.6875 344.058594 574.613281 339.570312 C 596.839844 356.359375 609.910156 376.289062 629.371094 395.679688 C 654.320312 420.539062 663.078125 428.96875 693.460938 448.359375 C 707.578125 457.359375 730.433594 468.601562 734.839844 485.058594 C 737.179688 493.789062 736.902344 502.5 739.964844 512.320312 L 741.101562 515.960938 C 745.886719 529.71875 753.03125 542.148438 759.761719 555.011719 C 746.363281 544.671875 734.820312 528.511719 719.695312 521.480469 C 724.347656 531.839844 734.339844 542.171875 740.25 552.320312 C 726.191406 549.640625 705.1875 533.699219 692.691406 525.628906 C 679.703125 517.308594 660.855469 504.160156 646.933594 498.699219 C 654.042969 506.539062 688.394531 527.808594 698.84375 534.601562 C 705.273438 538.769531 712.929688 543.511719 718.984375 548.109375 C 720.199219 549.03125 719.371094 548.558594 717.847656 548.460938 C 675.4375 545.789062 596.179688 502.121094 561.335938 476.691406 C 475.71875 411.800781 389.085938 304.800781 342.855469 207.890625 C 341.066406 204.128906 340.195312 203.121094 337.191406 200.269531 C 348.703125 247.109375 409.160156 342.988281 439.214844 383.398438 C 463.773438 415.359375 485.132812 435.390625 512.96875 463.519531 C 514.5 465.058594 554.390625 504.988281 531.441406 486.230469 C 510.058594 468.75 488.1875 457.371094 467.832031 436.878906 C 466.238281 435.269531 418.429688 383.378906 440.226562 413.929688 C 458.203125 439.128906 499.957031 469.878906 525.269531 489.078125 C 495.148438 473.839844 459.097656 444.390625 438.316406 417.671875 C 419.914062 393.480469 406.808594 369.410156 390.097656 344.78125 C 382.347656 333.371094 396.171875 363.101562 396.222656 363.191406 C 409.953125 389.589844 434.800781 424.921875 454.425781 447.539062 C 502.128906 500.941406 555.929688 518.941406 620.75 543.621094 C 566.742188 552.808594 516.136719 537.21875 469.753906 509.988281 C 451.007812 498.839844 437.84375 490.878906 420.085938 477.539062 C 403.492188 465.070312 385.578125 450.691406 370.855469 436.058594 L 369.152344 434.371094 C 361.417969 426.460938 356.6875 423.421875 348.824219 414.089844 C 311.863281 369.46875 268.898438 308.628906 256.207031 251.5 C 263.289062 260.011719 283.421875 294.878906 288.175781 298.441406 C 295.429688 298.738281 259.601562 252.660156 303.414062 305.109375 C 321.121094 326.308594 341.871094 351.378906 365.511719 365.910156 C 363.96875 361.128906 347.105469 341.601562 342.175781 334.070312 C 301.828125 271.699219 273.109375 205.589844 271.914062 130.171875 C 271.507812 104.578125 278.53125 77.800781 284.195312 53 C 284.910156 49.851562 290.023438 29.371094 294.8125 31.601562 C 298.726562 33.421875 315.289062 67.980469 318.710938 74.011719 C 325.792969 86.511719 332.921875 96.671875 341.921875 107.871094 C 354.894531 123.800781 369.304688 136.789062 384.894531 150.058594 Z M 1704.039062 246.039062 C 1670.878906 277.050781 1585.191406 338.75 1538.179688 327.96875 C 1528.210938 325.679688 1518.019531 320.429688 1508.058594 317.621094 C 1474.441406 308.109375 1443.53125 304.601562 1409.621094 293.160156 C 1245.691406 237.839844 1058.351562 230.898438 891.144531 275.78125 C 853.453125 286.511719 815.125 306.949219 776.578125 310.511719 C 747.296875 313.21875 730.425781 314.359375 701.796875 323.53125 C 672.171875 333.03125 661.894531 338.910156 631.492188 325.078125 C 624.066406 321.699219 616.691406 317.828125 609.351562 314.230469 C 524.550781 273.519531 480.695312 218.128906 456.144531 127.808594 C 450.71875 107.128906 448.007812 94.789062 431.671875 118.101562 C 417.515625 138.289062 417.238281 152.738281 393.265625 132.039062 C 385.78125 125.578125 378.921875 119.039062 372.070312 111.941406 C 344.710938 81.410156 330.988281 61.011719 314.714844 23.289062 C 302.023438 -6.128906 293.390625 -8.75 277.464844 22.121094 C 251.492188 73.621094 244.632812 131.539062 255.078125 187.949219 C 256.867188 197.601562 261.476562 214.109375 259.628906 223.421875 C 248.613281 217.820312 247.734375 208.679688 236.152344 202.789062 C 223.390625 223.210938 259.070312 308.339844 268.839844 329.769531 C 275.089844 343.460938 281.816406 357.21875 289.269531 370.308594 C 323.519531 428.308594 368.972656 472.730469 425.425781 509.03125 C 439.773438 518.179688 454.4375 526.871094 469.097656 535.511719 C 492.304688 549.488281 496.875 558.46875 500.296875 585.300781 C 501.1875 592.808594 500.105469 590.929688 491.636719 590.421875 C 460.523438 589.308594 436.515625 586.46875 407.210938 600.339844 C 400.171875 604.039062 397.164062 607.558594 393.273438 614.339844 C 405.515625 626.460938 426.441406 636.230469 441.46875 646.941406 C 448.023438 651.621094 459.894531 659.699219 464.324219 666.109375 C 455.242188 673.871094 446.453125 677.511719 437.171875 686.109375 C 401.039062 722.78125 389.074219 743.480469 340.480469 768.078125 C 333.929688 771.398438 329.027344 771.601562 339.300781 774.871094 C 356.75 780.429688 359.457031 775.269531 377.445312 787.730469 C 382.578125 791.289062 389.507812 796.21875 393.609375 800.890625 C 371.53125 824 330.515625 864.980469 324.886719 896.621094 C 335.746094 894.390625 338.671875 890.449219 348.222656 887.160156 C 344.929688 906.410156 334.324219 924.378906 330.554688 946.210938 C 323.855469 985.019531 325.625 1009.25 289.503906 1033.460938 C 286.515625 1035.289062 285.878906 1036.109375 284.332031 1039.199219 C 298.875 1044.488281 309.652344 1044.359375 322.75 1048.5 C 331.589844 1051.289062 330.09375 1057.210938 328.769531 1066.019531 C 323.90625 1094.511719 308.230469 1121.75 286.964844 1141.121094 C 284.621094 1143.261719 283.699219 1144.539062 282.050781 1147.238281 C 310.65625 1159.679688 359.738281 1143.238281 365.753906 1146.03125 C 370.035156 1148.019531 356.929688 1199.960938 355.324219 1205.609375 C 350.941406 1221.019531 345.207031 1238.871094 337.839844 1253.109375 C 325.976562 1275.160156 310.886719 1292.859375 287.203125 1302.359375 C 280.523438 1304.621094 274.035156 1306.359375 267.296875 1308.808594 C 264.871094 1309.78125 263.992188 1310.519531 262.875 1312.851562 C 286.761719 1325.878906 307.414062 1325.53125 331.425781 1336.53125 C 322.554688 1355.558594 311.878906 1373.191406 302.074219 1391.691406 C 295.390625 1404.941406 289.078125 1418.238281 282.949219 1431.761719 C 275.488281 1448.378906 268.597656 1465 261.953125 1482.191406 C 258.355469 1491.5 255.214844 1499.621094 252.019531 1508.839844 L 242.304688 1534.789062 C 227.832031 1531.488281 211.902344 1526.03125 197.4375 1522.03125 C 164.550781 1512.511719 131.625 1502.210938 98.75 1492.921875 C 83.457031 1488.601562 65.378906 1487.929688 68.84375 1509.339844 C 75.015625 1541.761719 90.652344 1570.941406 100.027344 1602.578125 C 70.820312 1593.851562 51.726562 1587.679688 24.300781 1573.648438 C 3.308594 1562.921875 -4.492188 1575.578125 3.6875 1595.289062 C 8.765625 1607.519531 15.097656 1618.289062 20.300781 1631.371094 C 55.929688 1720.960938 82.523438 1817.144531 108.070312 1910.132812 L 108.796875 1912.777344 C 122.808594 1963.042969 141.035156 2012.097656 151.839844 2063.199219 C 131.941406 2075.394531 117.445312 2073.835938 100.0625 2095.253906 C 68.847656 2133.710938 87.992188 2152.097656 74.246094 2191.917969 C 64.644531 2219.738281 57.933594 2238.671875 60.53125 2269.066406 C 61.492188 2280.355469 63.714844 2289.984375 67.113281 2300.761719 C 89.476562 2358.0625 131.78125 2402.167969 179.980469 2438.953125 C 195.8125 2450.765625 216.730469 2461.664062 229.523438 2471.832031 C 231.183594 2489.789062 231.378906 2498.082031 247.003906 2503.8125 C 292.203125 2519.226562 344.789062 2528.738281 391.78125 2540.3125 C 449.199219 2554.457031 506.511719 2569.015625 563.882812 2583.347656 C 600.324219 2592.449219 636.769531 2601.554688 673.214844 2610.65625 C 746.140625 2629.378906 914.273438 2674.109375 958.460938 2733.628906 C 978.964844 2761.25 982.484375 2773.769531 1017.160156 2788.027344 C 1089.679688 2817.851562 1220.941406 2808.027344 1277.960938 2750.492188 C 1298.261719 2730.011719 1283.691406 2727.488281 1316.929688 2706.640625 C 1344.808594 2689.148438 1366.890625 2676.574219 1397.261719 2662.976562 C 1518.449219 2608.71875 1658.890625 2584.441406 1787.449219 2551.621094 C 1850.300781 2535.574219 1913.289062 2521.003906 1976.25 2505.597656 C 2003.929688 2498.828125 1998.109375 2498.640625 2010.46875 2476.667969 C 2017.660156 2463.863281 2055.011719 2444.058594 2069.449219 2432.214844 C 2081.808594 2422.085938 2093.28125 2410.960938 2104.679688 2399.785156 C 2167.421875 2337.222656 2194.648438 2283.957031 2163 2196.144531 C 2152.570312 2168.59375 2167.238281 2151.753906 2147.78125 2117.957031 C 2136.398438 2098.199219 2121.039062 2083.789062 2096.171875 2074.3125 C 2097.769531 2056.550781 2110.96875 2018.472656 2116.261719 1999.136719 C 2123.140625 1974.03125 2130.121094 1949.238281 2136.871094 1924.371094 C 2150.390625 1874.570312 2163.601562 1826.195312 2177.808594 1776.679688 C 2191.878906 1727.960938 2206.871094 1679.78125 2223.378906 1631.820312 C 2227.371094 1620.320312 2236.449219 1605.78125 2226.878906 1597.359375 C 2217.320312 1588.960938 2201.238281 1599.261719 2191.738281 1603.878906 C 2169.898438 1614.121094 2148.808594 1623.78125 2125.878906 1631.460938 C 2132.140625 1593.390625 2145.5 1556.671875 2152.761719 1518.648438 C 2159.808594 1481.691406 2142.511719 1490.261719 2116.839844 1499.660156 C 2087.03125 1510.570312 2012.78125 1540.550781 1984.691406 1542.449219 C 1979.710938 1542.789062 1974.441406 1526.300781 1972.960938 1522.578125 C 1967.320312 1508.398438 1963 1493.761719 1957.101562 1479.820312 C 1944.019531 1448.941406 1927.769531 1415.878906 1912.628906 1385.890625 C 1904.269531 1369.320312 1894.519531 1354.148438 1885.660156 1337.980469 C 1912.050781 1327.019531 1936.199219 1325.480469 1960.679688 1308.609375 C 1919.660156 1294.949219 1907.230469 1291.429688 1885.910156 1250.820312 C 1869.011719 1218.648438 1861.191406 1179.96875 1856.460938 1144.171875 C 1891.078125 1148.148438 1909.011719 1154.839844 1947.710938 1149.230469 C 1942.570312 1141.121094 1934.441406 1138.808594 1928.089844 1130.398438 C 1911.519531 1108.449219 1897.929688 1078.050781 1893.519531 1049.371094 C 1904.398438 1048.261719 1931.648438 1045.019531 1937.71875 1038.078125 C 1924.109375 1027.339844 1918.71875 1033 1908.738281 1014.28125 C 1892.980469 981.96875 1893.371094 947.039062 1881.300781 912.839844 C 1878.5 904.890625 1876.53125 899.621094 1875.648438 891.109375 C 1885.171875 890.648438 1888.710938 892.289062 1897.679688 894.160156 C 1890.410156 865.179688 1852.078125 829.539062 1832.679688 805.910156 C 1826.359375 798.21875 1827.050781 799.449219 1834.058594 794.039062 C 1851.210938 780.789062 1864.800781 780.019531 1884.628906 773.710938 C 1881.761719 769.078125 1855.960938 756.878906 1849.210938 751.351562 C 1838.019531 742.179688 1827.980469 734.070312 1819.121094 724.640625 C 1809.640625 714.558594 1800.03125 703.789062 1791.648438 693.519531 C 1786.558594 687.28125 1783.730469 683.550781 1777.609375 678.28125 C 1772.339844 674.070312 1767.078125 669.851562 1761.820312 665.628906 C 1780.429688 639.75 1797.640625 634.039062 1822.050781 617.648438 C 1825.359375 615.421875 1827.628906 613.769531 1830.171875 610.679688 C 1824.101562 598.660156 1799.03125 592.5 1781.039062 590.71875 C 1756.300781 589.359375 1745 592.488281 1721.46875 595.390625 C 1713.421875 596.390625 1717.261719 592.78125 1719.789062 584.980469 C 1722.101562 577.871094 1724.460938 570.78125 1726.769531 563.671875 C 1735.148438 533.878906 1737.519531 539.890625 1763.671875 524.609375 C 1818.210938 492.738281 1863.550781 458.949219 1902.21875 408.351562 L 1904.128906 405.851562 C 1929.230469 370.191406 2004.058594 248.488281 1992.089844 207.710938 C 1990.269531 201.53125 1984.691406 208.25 1981.53125 211.101562 C 1976.351562 215.789062 1972.941406 220.140625 1966.601562 223.410156 C 1963.300781 207 1977.449219 159.679688 1978.109375 136.339844 C 1978.210938 132.808594 1978.25 129.339844 1978.109375 125.820312 C 1976.828125 93.660156 1965.039062 21.808594 1937.910156 2.128906 C 1930.5 -3.25 1926.039062 6.980469 1922.398438 13.308594 C 1907.988281 38.441406 1901.25 54.828125 1882.53125 78.5 C 1874.488281 88.679688 1824 149.769531 1811.570312 138.988281 C 1806.96875 134.988281 1785.679688 95.628906 1777.878906 109.839844 C 1770.820312 122.699219 1764.03125 152.230469 1757.929688 167.910156 C 1745.710938 199.328125 1726.730469 221.808594 1704.039062 246.039062 Z M 258.109375 1821.964844 C 271.863281 1819.925781 270.441406 1819.484375 255.699219 1813.695312 C 243.796875 1809.019531 213.585938 1800.429688 212.550781 1785.210938 C 211.367188 1767.820312 280.871094 1790.578125 288.871094 1793.011719 C 318.960938 1802.238281 361.648438 1817.785156 392.878906 1816.332031 C 392.867188 1815.925781 346.996094 1802.738281 344.78125 1802.039062 C 337.71875 1799.820312 255.429688 1775.769531 277.574219 1759.261719 C 309.429688 1740.609375 422 1771.980469 462.816406 1775.480469 C 482.046875 1777.128906 449.144531 1769.128906 447.53125 1768.679688 C 385.605469 1751.640625 322.871094 1736.429688 260.640625 1720.441406 C 250.074219 1717.71875 239.507812 1714.988281 228.941406 1712.269531 C 201.835938 1705.21875 174.597656 1697.550781 148.398438 1689.730469 C 163.195312 1740.96875 173.65625 1794.921875 187.132812 1846.992188 C 200.71875 1899.410156 216.835938 1963.761719 238.707031 2012.777344 C 255.933594 2051.386719 223.90625 1945.492188 223.816406 1945.148438 C 213.78125 1907.144531 197.167969 1834.460938 251.320312 1823.265625 L 254.519531 1822.601562 Z M 2015.070312 1848.878906 C 2037.929688 1865.855469 2030.128906 1906.828125 2026.109375 1930.863281 C 2024.089844 1942.925781 2021.570312 1954.976562 2019.808594 1967.054688 C 2028.929688 1930.039062 2041.558594 1893.414062 2051.429688 1856.191406 C 2058.941406 1827.863281 2066.578125 1799.578125 2073.851562 1771.191406 C 2022.410156 1794.679688 1969.269531 1813.605469 1917.898438 1836.609375 C 1915.359375 1837.746094 1912.859375 1838.722656 1911.28125 1841.09375 C 1946.449219 1836.273438 1977.28125 1815.121094 2009.390625 1808.332031 C 2036.21875 1802.660156 1972.578125 1835.855469 1969.601562 1837.285156 C 1947.359375 1847.976562 1931.808594 1852.9375 1908.878906 1860.703125 C 1916.460938 1861.558594 1963.679688 1847.367188 1976.03125 1845.292969 C 1989.339844 1843.054688 2002.949219 1842.027344 2015.070312 1848.878906 Z M 1345.109375 366.039062 C 1334.328125 371.011719 1320.261719 377.511719 1310.871094 384.628906 C 1350.648438 372.839844 1359.691406 378.371094 1387.210938 372.25 C 1415.320312 365.988281 1441.070312 357.058594 1469.460938 350.730469 C 1501.320312 343.609375 1521.578125 334.878906 1472.300781 330.578125 C 1429.289062 326.820312 1385.910156 347.269531 1347.71875 364.839844 Z M 1588.300781 764.941406 C 1582.441406 759.539062 1598.671875 778.308594 1598.820312 778.550781 C 1637.320312 839.351562 1657.070312 928.140625 1617.039062 992.820312 C 1609.671875 1004.730469 1591.878906 1034.089844 1615.929688 1001.679688 C 1653.03125 951.679688 1657.660156 892.738281 1637.03125 835.5 L 1635.988281 832.628906 C 1626.238281 805.570312 1609.351562 784.351562 1588.300781 764.941406 Z M 1112.109375 2089.949219 C 1119.761719 2087.0625 1120.550781 2085.777344 1124.230469 2078.59375 C 1105.980469 2071.632812 1102.78125 2071.382812 1094.480469 2089.503906 C 1088.128906 2103.367188 1100.78125 2085.230469 1102.589844 2083.261719 C 1106.359375 2079.152344 1113.738281 2078.582031 1109.660156 2082.75 C 1104.949219 2087.558594 1100.539062 2092.511719 1110.429688 2090.328125 C 1110.988281 2090.203125 1111.550781 2090.074219 1112.109375 2089.949219 Z M 1086.980469 2115.972656 C 1071.691406 2138 1090.289062 2141.097656 1093.621094 2119.902344 C 1094.589844 2113.699219 1092.300781 2110.730469 1086.980469 2115.972656 "/>
</svg>
